<svg width="24" height="24" fill="none" xmlns="http://www.w3.org/2000/svg"><rect width="24" height="24" rx="6" fill="#232249"/><path d="M5.293 7.812c1.921 1.55 5.293 4.277 6.284 5.127a.644.644 0 0 0 .423.173c.148 0 .29-.058.423-.172.992-.851 4.364-3.578 6.285-5.128a.269.269 0 0 0 .041-.384A1.18 1.18 0 0 0 17.834 7H6.167a1.18 1.18 0 0 0-.915.428.269.269 0 0 0 .04.384Z" fill="#fff"/><path d="M18.83 8.65a.302.302 0 0 0-.31.04c-2.131 1.72-4.85 3.926-5.706 4.66a1.224 1.224 0 0 1-1.628 0c-.912-.783-3.966-3.256-5.706-4.66a.303.303 0 0 0-.31-.04.277.277 0 0 0-.17.25v6.988c0 .613.523 1.11 1.167 1.11h11.666c.644 0 1.167-.497 1.167-1.11V8.9a.277.277 0 0 0-.17-.252Z" fill="#fff"/></svg>