<svg width="182" height="56" viewBox="0 0 182 56" fill="none" xmlns="http://www.w3.org/2000/svg">
<rect x="0.5" y="0.5" width="181" height="55" rx="5.5" fill="black"/>
<path fill-rule="evenodd" clip-rule="evenodd" d="M35.435 15.547C35.144 15.855 34.973 16.332 34.973 16.951V39.049C34.973 39.668 35.144 40.145 35.435 40.453L35.509 40.525L47.888 28.146V27.854L35.509 15.475L35.435 15.547Z" fill="#00D7FE"/>
<mask id="mask0_1285_44267" style="mask-type:alpha" maskUnits="userSpaceOnUse" x="47" y="23" width="12" height="10">
<path d="M52.0131 32.274L47.8881 28.146V27.854L52.0151 23.727L56.9971 26.557C58.3931 27.351 58.3931 28.649 56.9971 29.442L52.1081 32.22L52.0131 32.274Z" fill="white"/>
</mask>
<g mask="url(#mask0_1285_44267)">
<path fill-rule="evenodd" clip-rule="evenodd" d="M52.0131 32.274L47.8881 28.146V27.854L52.0151 23.727L56.9971 26.557C58.3931 27.351 58.3931 28.649 56.9971 29.442L52.1081 32.22L52.0131 32.274Z" fill="url(#paint0_linear_1285_44267)"/>
</g>
<mask id="mask1_1285_44267" style="mask-type:alpha" maskUnits="userSpaceOnUse" x="35" y="28" width="18" height="13">
<path d="M52.1081 32.22L47.8881 28L35.4351 40.453C35.8961 40.94 36.6561 41 37.5121 40.514L52.1081 32.22Z" fill="white"/>
</mask>
<g mask="url(#mask1_1285_44267)">
<path fill-rule="evenodd" clip-rule="evenodd" d="M52.1081 32.22L47.8881 28L35.4351 40.453C35.8961 40.94 36.6561 41 37.5121 40.514L52.1081 32.22Z" fill="url(#paint1_linear_1285_44267)"/>
</g>
<mask id="mask2_1285_44267" style="mask-type:alpha" maskUnits="userSpaceOnUse" x="35" y="15" width="18" height="13">
<path d="M52.1081 23.78L37.5121 15.486C36.6561 15 35.8961 15.06 35.4351 15.547L47.8881 28L52.1081 23.78Z" fill="white"/>
</mask>
<g mask="url(#mask2_1285_44267)">
<path fill-rule="evenodd" clip-rule="evenodd" d="M52.1081 23.78L37.5121 15.486C36.6561 15 35.8961 15.06 35.4351 15.547L47.8881 28L52.1081 23.78Z" fill="url(#paint2_linear_1285_44267)"/>
</g>
<path fill-rule="evenodd" clip-rule="evenodd" d="M129.894 38.953H131.76V26.452H129.894V38.953ZM146.701 30.955L144.562 36.375H144.498L142.278 30.955H140.268L143.597 38.53L141.699 42.744H143.646L148.776 30.955H146.701ZM136.119 37.533C135.507 37.533 134.655 37.228 134.655 36.472C134.655 35.507 135.717 35.137 136.633 35.137C137.454 35.137 137.839 35.314 138.338 35.555C138.193 36.713 137.196 37.533 136.119 37.533ZM136.344 30.682C134.993 30.682 133.594 31.277 133.015 32.596L134.671 33.287C135.025 32.596 135.684 32.37 136.376 32.37C137.341 32.37 138.322 32.949 138.338 33.979V34.107C138 33.914 137.277 33.625 136.392 33.625C134.607 33.625 132.789 34.606 132.789 36.439C132.789 38.112 134.253 39.19 135.893 39.19C137.148 39.19 137.839 38.627 138.274 37.967H138.338V38.932H140.139V34.14C140.139 31.92 138.483 30.682 136.344 30.682ZM124.812 32.477H122.158V28.192H124.812C126.207 28.192 126.999 29.347 126.999 30.334C126.999 31.303 126.207 32.477 124.812 32.477ZM124.764 26.452H120.293V38.953H122.158V34.217H124.764C126.832 34.217 128.865 32.719 128.865 30.334C128.865 27.949 126.832 26.452 124.764 26.452ZM100.383 37.535C99.094 37.535 98.015 36.456 98.015 34.974C98.015 33.476 99.094 32.38 100.383 32.38C101.656 32.38 102.654 33.476 102.654 34.974C102.654 36.456 101.656 37.535 100.383 37.535ZM102.525 31.655H102.461C102.042 31.156 101.237 30.705 100.222 30.705C98.095 30.705 96.146 32.573 96.146 34.974C96.146 37.358 98.095 39.211 100.222 39.211C101.237 39.211 102.042 38.76 102.461 38.244H102.525V38.856C102.525 40.484 101.656 41.354 100.254 41.354C99.11 41.354 98.401 40.532 98.111 39.839L96.484 40.516C96.951 41.644 98.192 43.029 100.254 43.029C102.445 43.029 104.298 41.74 104.298 38.599V30.962H102.525V31.655ZM105.587 38.953H107.456V26.451H105.587V38.953ZM110.21 34.829C110.162 33.186 111.483 32.348 112.433 32.348C113.175 32.348 113.803 32.718 114.012 33.25L110.21 34.829ZM116.01 33.411C115.656 32.461 114.576 30.705 112.369 30.705C110.178 30.705 108.358 32.428 108.358 34.958C108.358 37.342 110.162 39.211 112.578 39.211C114.528 39.211 115.656 38.019 116.123 37.326L114.673 36.359C114.19 37.068 113.529 37.535 112.578 37.535C111.628 37.535 110.951 37.1 110.516 36.247L116.203 33.895L116.01 33.411ZM70.702 32.01V33.814H75.019C74.89 34.829 74.552 35.57 74.037 36.086C73.408 36.714 72.425 37.406 70.702 37.406C68.044 37.406 65.965 35.264 65.965 32.606C65.965 29.947 68.044 27.805 70.702 27.805C72.136 27.805 73.183 28.369 73.956 29.094L75.229 27.821C74.149 26.79 72.716 26 70.702 26C67.061 26 64 28.965 64 32.606C64 36.247 67.061 39.211 70.702 39.211C72.667 39.211 74.149 38.567 75.309 37.358C76.501 36.166 76.872 34.491 76.872 33.137C76.872 32.718 76.84 32.332 76.775 32.01H70.702ZM81.781 37.535C80.492 37.535 79.38 36.472 79.38 34.958C79.38 33.427 80.492 32.38 81.781 32.38C83.069 32.38 84.181 33.427 84.181 34.958C84.181 36.472 83.069 37.535 81.781 37.535ZM81.781 30.705C79.428 30.705 77.511 32.493 77.511 34.958C77.511 37.406 79.428 39.211 81.781 39.211C84.133 39.211 86.05 37.406 86.05 34.958C86.05 32.493 84.133 30.705 81.781 30.705ZM91.094 37.535C89.805 37.535 88.693 36.472 88.693 34.958C88.693 33.427 89.805 32.38 91.094 32.38C92.383 32.38 93.494 33.427 93.494 34.958C93.494 36.472 92.383 37.535 91.094 37.535ZM91.094 30.705C88.742 30.705 86.825 32.493 86.825 34.958C86.825 37.406 88.742 39.211 91.094 39.211C93.446 39.211 95.363 37.406 95.363 34.958C95.363 32.493 93.446 30.705 91.094 30.705Z" fill="#FFFFFE"/>
<path d="M69.4712 18.814V21.1562C69.3921 21.2734 69.2661 21.4053 69.0933 21.5518C68.9204 21.6953 68.6816 21.8213 68.377 21.9297C68.0752 22.0352 67.6855 22.0879 67.208 22.0879C66.8184 22.0879 66.4595 22.0205 66.1313 21.8857C65.8062 21.748 65.5234 21.5488 65.2832 21.2881C65.0459 21.0244 64.8613 20.7051 64.7295 20.3301C64.6006 19.9521 64.5361 19.5244 64.5361 19.0469V18.5503C64.5361 18.0728 64.5918 17.6465 64.7031 17.2715C64.8174 16.8965 64.9844 16.5786 65.2041 16.3179C65.4238 16.0542 65.6934 15.855 66.0127 15.7202C66.332 15.5825 66.6982 15.5137 67.1113 15.5137C67.6006 15.5137 68.0093 15.5986 68.3374 15.7686C68.6685 15.9355 68.9263 16.167 69.1108 16.4629C69.2983 16.7588 69.4185 17.0957 69.4712 17.4736H68.623C68.585 17.2422 68.5088 17.0312 68.3945 16.8408C68.2832 16.6504 68.1235 16.498 67.9155 16.3838C67.7075 16.2666 67.4395 16.208 67.1113 16.208C66.8154 16.208 66.5591 16.2622 66.3423 16.3706C66.1255 16.479 65.9468 16.6343 65.8062 16.8364C65.6655 17.0386 65.5601 17.2832 65.4897 17.5703C65.4224 17.8574 65.3887 18.1812 65.3887 18.5415V19.0469C65.3887 19.416 65.4312 19.7456 65.5161 20.0356C65.604 20.3257 65.7285 20.5732 65.8896 20.7783C66.0508 20.9805 66.2427 21.1343 66.4653 21.2397C66.6909 21.3452 66.9399 21.3979 67.2124 21.3979C67.5142 21.3979 67.7588 21.373 67.9463 21.3232C68.1338 21.2705 68.2803 21.209 68.3857 21.1387C68.4912 21.0654 68.5718 20.9966 68.6274 20.9321V19.4995H67.1465V18.814H69.4712ZM74.6724 21.3101V22H71.2842V21.3101H74.6724ZM71.4556 15.6016V22H70.6074V15.6016H71.4556ZM74.2241 18.3525V19.0425H71.2842V18.3525H74.2241ZM74.6284 15.6016V16.2959H71.2842V15.6016H74.6284ZM77.9048 15.6016V22H77.0699V15.6016H77.9048ZM79.9615 15.6016V16.2959H75.0176V15.6016H79.9615ZM83.337 15.6016V22H82.4888V15.6016H83.337ZM86.8419 15.6016V22H86.0069V15.6016H86.8419ZM88.8985 15.6016V16.2959H83.9547V15.6016H88.8985ZM96.2907 18.5986V19.0029C96.2907 19.4834 96.2306 19.9141 96.1105 20.2949C95.9904 20.6758 95.8175 20.9995 95.5919 21.2661C95.3663 21.5327 95.0954 21.7363 94.7789 21.877C94.4655 22.0176 94.1139 22.0879 93.7243 22.0879C93.3463 22.0879 92.9992 22.0176 92.6828 21.877C92.3693 21.7363 92.0968 21.5327 91.8654 21.2661C91.6369 20.9995 91.4596 20.6758 91.3336 20.2949C91.2077 19.9141 91.1447 19.4834 91.1447 19.0029V18.5986C91.1447 18.1182 91.2062 17.689 91.3292 17.311C91.4552 16.9302 91.6325 16.6064 91.861 16.3398C92.0895 16.0703 92.3605 15.8652 92.674 15.7246C92.9904 15.584 93.3375 15.5137 93.7155 15.5137C94.1051 15.5137 94.4567 15.584 94.7702 15.7246C95.0866 15.8652 95.3576 16.0703 95.5831 16.3398C95.8117 16.6064 95.986 16.9302 96.1061 17.311C96.2291 17.689 96.2907 18.1182 96.2907 18.5986ZM95.4513 19.0029V18.5898C95.4513 18.209 95.4118 17.8721 95.3327 17.5791C95.2565 17.2861 95.1437 17.04 94.9943 16.8408C94.8449 16.6416 94.6618 16.4907 94.445 16.3882C94.2311 16.2856 93.9879 16.2344 93.7155 16.2344C93.4518 16.2344 93.213 16.2856 92.9992 16.3882C92.7882 16.4907 92.6066 16.6416 92.4542 16.8408C92.3048 17.04 92.1891 17.2861 92.1071 17.5791C92.025 17.8721 91.984 18.209 91.984 18.5898V19.0029C91.984 19.3867 92.025 19.7266 92.1071 20.0225C92.1891 20.3154 92.3063 20.563 92.4586 20.7651C92.6139 20.9644 92.797 21.1152 93.0079 21.2178C93.2218 21.3203 93.4606 21.3716 93.7243 21.3716C93.9996 21.3716 94.2443 21.3203 94.4581 21.2178C94.672 21.1152 94.8522 20.9644 94.9987 20.7651C95.1481 20.563 95.2609 20.3154 95.3371 20.0225C95.4132 19.7266 95.4513 19.3867 95.4513 19.0029ZM102.213 15.6016V22H101.36L98.1388 17.0649V22H97.2907V15.6016H98.1388L101.373 20.5498V15.6016H102.213Z" fill="white"/>
<!-- <rect x="0.5" y="0.5" width="181" height="55" rx="5.5" stroke="#A6A6A6"/> -->
<defs>
<linearGradient id="paint0_linear_1285_44267" x1="56.0889" y1="28.0003" x2="47.8881" y2="28.0003" gradientUnits="userSpaceOnUse">
<stop stop-color="#FFBC00"/>
<stop offset="1" stop-color="#FFDA03"/>
</linearGradient>
<linearGradient id="paint1_linear_1285_44267" x1="49.8147" y1="31.9708" x2="39.1112" y2="40.7933" gradientUnits="userSpaceOnUse">
<stop stop-color="#E22652"/>
<stop offset="1" stop-color="#FF3A44"/>
</linearGradient>
<linearGradient id="paint2_linear_1285_44267" x1="37.3207" y1="17.0462" x2="44.457" y2="23.3211" gradientUnits="userSpaceOnUse">
<stop stop-color="#0ED574"/>
<stop offset="1" stop-color="#07F076"/>
</linearGradient>
</defs>
</svg>
