<svg width="16" height="16" fill="none" xmlns="http://www.w3.org/2000/svg"><path d="M4.702.048C5.555.009 5.829 0 8 0c2.171 0 2.445.01 3.297.047.664.013 1.321.14 1.943.372.534.2 1.018.516 1.417.923.407.4.722.883.923 1.417.233.622.359 1.279.372 1.942C15.991 5.555 16 5.828 16 8c0 2.17-.01 2.444-.047 3.297a5.876 5.876 0 0 1-.372 1.943 4.096 4.096 0 0 1-2.34 2.34 5.873 5.873 0 0 1-1.942.372c-.853.039-1.126.048-3.298.048-2.173 0-2.445-.01-3.299-.048a5.873 5.873 0 0 1-1.942-.372 3.919 3.919 0 0 1-1.417-.923 3.918 3.918 0 0 1-.923-1.416 5.873 5.873 0 0 1-.372-1.943C.009 10.444 0 10.17 0 8c0-2.172.01-2.445.047-3.298.013-.664.14-1.32.372-1.943a3.919 3.919 0 0 1 .924-1.416c.4-.407.882-.722 1.416-.923A5.874 5.874 0 0 1 4.702.048Z" fill="#221F20"/><path d="M12.27 4.69a.96.96 0 1 0 0-1.92.96.96 0 0 0 0 1.92Z" fill="#8FCAE7"/><path fill-rule="evenodd" clip-rule="evenodd" d="M7.999 10.666a2.667 2.667 0 1 1 0-5.334 2.667 2.667 0 0 1 0 5.334Z" fill="#221F20"/><path fill-rule="evenodd" clip-rule="evenodd" d="M7.999 3.891a4.108 4.108 0 1 0 0 8.217 4.108 4.108 0 0 0 0-8.217Zm-1.482 6.325A2.667 2.667 0 1 0 9.48 5.782a2.667 2.667 0 0 0-2.963 4.434Z" fill="#8FCAE7"/></svg>