<svg width="58" height="57" fill="none" xmlns="http://www.w3.org/2000/svg"><path fill-rule="evenodd" clip-rule="evenodd" d="M5.168 29.748c1.801-7.324 1.683-14.377 1.9-21.806A2.625 2.625 0 0 0 4.522 5.24a2.626 2.626 0 0 0-2.698 2.552c-.205 7.045-.04 13.748-1.75 20.706a2.62 2.62 0 0 0 1.921 3.172 2.62 2.62 0 0 0 3.172-1.922Zm15.306 14.194c12.22-11.17 23.735-25.539 31.783-40.048A2.624 2.624 0 0 0 51.236.328a2.625 2.625 0 0 0-3.565 1.023c-7.783 14.028-18.919 27.925-30.735 38.72a2.622 2.622 0 1 0 3.538 3.872Zm3.094 12.202c11.177 1.844 22.698-1.302 32.86-5.751a2.627 2.627 0 0 0 1.352-3.453 2.626 2.626 0 0 0-3.454-1.354c-9.256 4.055-19.724 7.062-29.904 5.383a2.624 2.624 0 0 0-3.014 2.16 2.626 2.626 0 0 0 2.16 3.015Z" fill="#221F20"/></svg>