<svg width="14" height="15" fill="none" xmlns="http://www.w3.org/2000/svg"><path d="M2.754 9.133c.088-.728.386-1.135.949-1.553.805-.566 1.81-.246 1.81-.246V5.436c.244-.006.489.008.73.043v2.443s-1.004-.32-1.81.246c-.561.418-.86.826-.948 1.553-.003.396.071.912.413 1.359a3.324 3.324 0 0 1-.258-.148c-.753-.505-.89-1.263-.886-1.799Zm7.641-7.208C9.841 1.32 9.632.706 9.556.275h.697s-.14 1.13.873 2.239l.014.015a4.013 4.013 0 0 1-.745-.604Zm3.355 1.72V6.04s-.889-.035-1.546-.203c-.919-.234-1.509-.592-1.509-.592s-.408-.256-.44-.274v4.944c0 .275-.076.962-.306 1.536-.3.75-.763 1.242-.848 1.343 0 0-.563.665-1.557 1.113-.895.405-1.682.394-1.917.405 0 0-1.359.053-2.582-.741a5.13 5.13 0 0 1-.737-.593l.006.004c1.223.795 2.582.741 2.582.741.235-.01 1.022 0 1.917-.404a4.785 4.785 0 0 0 1.557-1.114c.084-.1.549-.593.848-1.343.229-.573.305-1.26.305-1.536V4.383c.033.018.44.274.44.274s.591.36 1.51.593c.657.167 1.546.202 1.546.202V3.576c.304.068.563.087.731.07Z" fill="#221F20"/><path d="M13.02 3.576V5.45s-.89-.034-1.547-.202c-.919-.234-1.51-.593-1.51-.593s-.407-.256-.44-.274v4.945c0 .275-.075.963-.305 1.536-.3.75-.763 1.242-.848 1.343 0 0-.564.665-1.557 1.114-.895.404-1.681.394-1.917.404 0 0-1.358.054-2.582-.741l-.006-.005a4.68 4.68 0 0 1-.364-.395 4.693 4.693 0 0 1-.69-1.201c-.097-.28-.3-.95-.272-1.599.05-1.145.452-1.848.559-2.024a4.82 4.82 0 0 1 1.084-1.27c.384-.31.82-.558 1.289-.731a4.484 4.484 0 0 1 1.599-.322v1.898s-1.005-.318-1.81.246c-.563.418-.861.825-.949 1.553-.004.536.133 1.294.885 1.8.088.055.174.104.258.147.132.171.292.32.474.44.734.465 1.35.498 2.136.196.525-.202.92-.657 1.103-1.16.115-.316.113-.632.113-.96V.276h1.832c.075.43.285 1.043.838 1.65.223.229.473.431.745.603a3.91 3.91 0 0 0 1.022.748 4.1 4.1 0 0 0 .86.299ZM.525 10.8v.002l.046.123-.046-.124Z" fill="#221F20"/></svg>