<svg width="74" height="81" fill="none" xmlns="http://www.w3.org/2000/svg"><path d="M55.35 67.308c1.939 1.433 3.58 2.464 5.03 3.8.768.71 1.76 1.952 1.72 2.9-.042.987-1.065 2.266-1.9 2.768-2.443 1.47-5.005 2.712-7.56 3.835-.552.243-1.555.133-2.027-.624-.568-.622.55-2.035 1.104-2.42 2.122-1.443 4.367-2.633 6.755-4.022-1.36-1.006-2.506-1.813-3.636-2.689-3.016-2.352-3.222-4.987-.464-7.752 3.9-3.916 7.885-7.706 11.837-11.562.477-.462.93-.942 1.389-1.437.782-.663.581-.893-.167-.611-1.435.567-2.874 1.11-4.309 1.679-2.549 1.006-5.093 2.035-7.646 3.017-.577.226-1.226.295-1.786.451-.985.269-1.85-.514-2.268-1.25-.354-.627-.604-1.545.114-2.867 1.529-2.737 3.219-5.334 4.914-7.908 3.815-5.81 7.659-11.577 11.357-17.657-1.895 1.204-3.815 2.39-5.681 3.636-4.13 2.748-8.208 5.595-12.364 8.262-1.423.923-3.056 2.362-4.607.482-1.456-1.769-.503-3.832.072-5.646 1.83-5.69 3.761-11.325 5.645-16.995.188-.573.31-1.176.625-2.367-2.703 1.99-5.114 3.567-7.336 5.466-4.68 3.99-9.282 8.159-13.91 12.247-3.083 2.729-4.783 1.859-5.242-2.898-.582-5.946-.999-11.933-1.504-17.904-.096-1.11-.287-2.187-.524-3.93-.559 1.053-.915 1.604-1.155 2.22-2.782 7.063-5.55 14.134-8.327 21.22-.729 1.864-1.225 4.164-3.143 4.517-2.006.369-2.818-1.84-3.811-3.49-1.028-1.716-2.002-3.475-3.377-5.143-.01 1.886-.012 3.757-.022 5.643-.009 1.54.075 3.088-.052 4.602-.042.539-.619 1.456-.892 1.416-.492-.058-.986-.077-1.36-1.147-.163-.446-.229-1.065-.23-1.616-.062-3.77-.206-7.54-.062-11.302.048-1.104.728-2.657 1.447-3.082.602-.349 1.959.39 2.536 1.163 1.485 1.952 2.726 4.213 4.063 6.341.438.69.862 1.411 1.46 2.383.706-1.676 1.278-3.066 1.868-4.461 3.05-7.291 6.101-14.582 9.164-21.864.215-.492.466-.958.746-1.382.974-1.417 2.467-1.453 3.199.167.67 1.473 1.197 3.185 1.38 4.867.668 6.214 1.17 12.467 1.73 18.703.057.673.14 1.325.24 2.253 3.368-2.924 6.502-5.797 9.747-8.425 3.875-3.14 7.823-6.124 11.784-9.099 1.202-.902 2.526-2.305 3.978-.906 1.451 1.4 1.017 3.5.508 5.24-1.605 5.49-3.376 10.919-5.072 16.361-.28.872-.566 1.76-.597 2.999 2.815-1.745 5.63-3.49 8.44-5.26 4.133-2.583 8.249-5.199 12.387-7.757.986-.615 2.107-1.414 3.074-.088.984 1.358.46 2.822-.264 4.018-2.956 4.877-5.93 9.761-8.988 14.544-2.473 3.85-5.077 7.564-7.5 11.859 2.034-.736 4.035-1.577 6.092-2.193 2.593-.79 5.214-1.5 7.847-1.995.805-.158 2.24.273 2.427.878.264.888-.066 2.558-.636 3.255-2.108 2.553-4.387 4.92-6.68 7.213-2.982 3.067-6.054 5.946-9.58 9.344Z" fill="#12141D"/></svg>