<svg width="16" height="13" fill="none" xmlns="http://www.w3.org/2000/svg"><path d="M16 1.508c-.6.268-1.233.435-1.9.536a3.23 3.23 0 0 0 1.433-1.81 7.201 7.201 0 0 1-2.1.805A3.315 3.315 0 0 0 11.033 0c-1.8 0-3.266 1.474-3.266 3.284 0 .268.033.502.1.737A9.324 9.324 0 0 1 1.1.57C.833 1.072.667 1.608.667 2.21c0 1.14.566 2.145 1.466 2.748a3.841 3.841 0 0 1-1.5-.402v.033a3.306 3.306 0 0 0 2.634 3.25c-.267.067-.567.1-.867.1-.2 0-.433-.033-.633-.066C2.2 9.18 3.4 10.152 4.833 10.152 3.7 11.023 2.3 11.56.767 11.56c-.267 0-.534 0-.767-.033A9.241 9.241 0 0 0 5.033 13c6.034 0 9.334-5.026 9.334-9.381v-.436A6.002 6.002 0 0 0 16 1.508Z" fill="#221F20"/></svg>