<svg width="16" height="12" fill="none" xmlns="http://www.w3.org/2000/svg"><path fill-rule="evenodd" clip-rule="evenodd" d="M2.344.551a2.186 2.186 0 0 0-2.081 2.04C.193 3.659.125 4.972.125 6c0 1.03.068 2.342.138 3.408a2.186 2.186 0 0 0 2.08 2.04c1.614.08 3.92.177 5.657.177s4.043-.096 5.656-.176a2.186 2.186 0 0 0 2.082-2.04c.069-1.067.137-2.38.137-3.409 0-1.03-.068-2.342-.137-3.408a2.186 2.186 0 0 0-2.082-2.04C12.043.471 9.737.374 8 .374 6.263.374 3.957.47 2.344.55ZM10.813 6l-4.5 2.25v-4.5l4.5 2.25Z" fill="#221F20"/></svg>