<svg width="182" height="56" viewBox="0 0 182 56" fill="none" xmlns="http://www.w3.org/2000/svg">
<rect x="0.5" y="0.5" width="181" height="55" rx="5.5" fill="black"/>
<path fill-rule="evenodd" clip-rule="evenodd" d="M51.7689 28.5804C51.7907 26.8839 52.6801 25.3169 54.1254 24.4284C53.2095 23.1203 51.7304 22.3206 50.1343 22.2707C48.455 22.0944 46.8271 23.2755 45.9714 23.2755C45.0991 23.2755 43.7816 22.2882 42.3629 22.3174C40.4962 22.3777 38.7981 23.4133 37.89 25.0452C35.956 28.3937 37.3985 33.3147 39.2512 36.0213C40.1781 37.3467 41.2613 38.8271 42.6788 38.7746C44.0658 38.7171 44.5839 37.8901 46.2582 37.8901C47.9169 37.8901 48.403 38.7746 49.8492 38.7412C51.3376 38.7171 52.2753 37.41 53.1697 36.0721C53.8357 35.1277 54.3481 34.084 54.6881 32.9796C52.9204 32.2319 51.7709 30.4998 51.7689 28.5804Z" fill="white"/>
<path fill-rule="evenodd" clip-rule="evenodd" d="M49.0372 20.4906C49.8487 19.5164 50.2485 18.2642 50.1517 17C48.9119 17.1302 47.7666 17.7228 46.9442 18.6596C46.132 19.5839 45.7205 20.7932 45.8004 22.021C47.0569 22.0339 48.2499 21.4699 49.0372 20.4906Z" fill="white"/>
<path d="M67.557 21.78V16.794H68.997C69.393 16.794 69.726 16.851 69.996 16.965C70.266 17.073 70.485 17.235 70.653 17.451C70.827 17.661 70.95 17.919 71.022 18.225C71.1 18.525 71.139 18.867 71.139 19.251C71.139 19.647 71.097 19.986 71.013 20.268C70.935 20.544 70.833 20.775 70.707 20.961C70.581 21.147 70.437 21.294 70.275 21.402C70.119 21.51 69.96 21.594 69.798 21.654C69.636 21.708 69.483 21.744 69.339 21.762C69.195 21.774 69.075 21.78 68.979 21.78H67.557ZM66.702 16.074V22.5H68.907C69.441 22.5 69.903 22.425 70.293 22.275C70.683 22.125 71.004 21.909 71.256 21.627C71.508 21.339 71.694 20.988 71.814 20.574C71.934 20.154 71.994 19.674 71.994 19.134C71.994 18.102 71.727 17.334 71.193 16.83C70.659 16.326 69.897 16.074 68.907 16.074H66.702ZM73.6509 20.178C73.6509 19.896 73.6869 19.647 73.7589 19.431C73.8369 19.209 73.9419 19.023 74.0739 18.873C74.2059 18.723 74.3589 18.609 74.5329 18.531C74.7129 18.453 74.9019 18.414 75.0999 18.414C75.2979 18.414 75.4839 18.453 75.6579 18.531C75.8379 18.609 75.9939 18.723 76.1259 18.873C76.2579 19.023 76.3599 19.209 76.4319 19.431C76.5099 19.647 76.5489 19.896 76.5489 20.178C76.5489 20.46 76.5099 20.712 76.4319 20.934C76.3599 21.15 76.2579 21.333 76.1259 21.483C75.9939 21.627 75.8379 21.738 75.6579 21.816C75.4839 21.894 75.2979 21.933 75.0999 21.933C74.9019 21.933 74.7129 21.894 74.5329 21.816C74.3589 21.738 74.2059 21.627 74.0739 21.483C73.9419 21.333 73.8369 21.15 73.7589 20.934C73.6869 20.712 73.6509 20.46 73.6509 20.178ZM72.8409 20.178C72.8409 20.52 72.8889 20.838 72.9849 21.132C73.0809 21.426 73.2249 21.684 73.4169 21.906C73.6089 22.122 73.8459 22.293 74.1279 22.419C74.4099 22.539 74.7339 22.599 75.0999 22.599C75.4719 22.599 75.7959 22.539 76.0719 22.419C76.3539 22.293 76.5909 22.122 76.7829 21.906C76.9749 21.684 77.1189 21.426 77.2149 21.132C77.3109 20.838 77.3589 20.52 77.3589 20.178C77.3589 19.836 77.3109 19.518 77.2149 19.224C77.1189 18.924 76.9749 18.666 76.7829 18.45C76.5909 18.228 76.3539 18.054 76.0719 17.928C75.7959 17.802 75.4719 17.739 75.0999 17.739C74.7339 17.739 74.4099 17.802 74.1279 17.928C73.8459 18.054 73.6089 18.228 73.4169 18.45C73.2249 18.666 73.0809 18.924 72.9849 19.224C72.8889 19.518 72.8409 19.836 72.8409 20.178ZM83.0489 22.5L84.5339 17.847H83.7419L82.6979 21.654H82.6799L81.7079 17.847H80.8709L79.9349 21.654H79.9169L78.8639 17.847H78.0179L79.5119 22.5H80.3399L81.2759 18.801H81.2939L82.2389 22.5H83.0489ZM85.4412 17.847V22.5H86.2062V19.872C86.2062 19.662 86.2332 19.47 86.2872 19.296C86.3472 19.116 86.4342 18.96 86.5482 18.828C86.6622 18.696 86.8032 18.594 86.9712 18.522C87.1452 18.45 87.3492 18.414 87.5832 18.414C87.8772 18.414 88.1082 18.498 88.2762 18.666C88.4442 18.834 88.5282 19.062 88.5282 19.35V22.5H89.2932V19.44C89.2932 19.188 89.2662 18.96 89.2122 18.756C89.1642 18.546 89.0772 18.366 88.9512 18.216C88.8252 18.066 88.6602 17.949 88.4562 17.865C88.2522 17.781 87.9972 17.739 87.6912 17.739C87.0012 17.739 86.4972 18.021 86.1792 18.585H86.1612V17.847H85.4412ZM90.6672 16.074V22.5H91.4322V16.074H90.6672ZM93.3553 20.178C93.3553 19.896 93.3913 19.647 93.4633 19.431C93.5413 19.209 93.6463 19.023 93.7783 18.873C93.9103 18.723 94.0633 18.609 94.2373 18.531C94.4173 18.453 94.6063 18.414 94.8043 18.414C95.0023 18.414 95.1883 18.453 95.3623 18.531C95.5423 18.609 95.6983 18.723 95.8303 18.873C95.9623 19.023 96.0643 19.209 96.1363 19.431C96.2143 19.647 96.2533 19.896 96.2533 20.178C96.2533 20.46 96.2143 20.712 96.1363 20.934C96.0643 21.15 95.9623 21.333 95.8303 21.483C95.6983 21.627 95.5423 21.738 95.3623 21.816C95.1883 21.894 95.0023 21.933 94.8043 21.933C94.6063 21.933 94.4173 21.894 94.2373 21.816C94.0633 21.738 93.9103 21.627 93.7783 21.483C93.6463 21.333 93.5413 21.15 93.4633 20.934C93.3913 20.712 93.3553 20.46 93.3553 20.178ZM92.5453 20.178C92.5453 20.52 92.5933 20.838 92.6893 21.132C92.7853 21.426 92.9293 21.684 93.1213 21.906C93.3133 22.122 93.5503 22.293 93.8323 22.419C94.1143 22.539 94.4383 22.599 94.8043 22.599C95.1763 22.599 95.5003 22.539 95.7763 22.419C96.0583 22.293 96.2953 22.122 96.4873 21.906C96.6793 21.684 96.8233 21.426 96.9193 21.132C97.0153 20.838 97.0633 20.52 97.0633 20.178C97.0633 19.836 97.0153 19.518 96.9193 19.224C96.8233 18.924 96.6793 18.666 96.4873 18.45C96.2953 18.228 96.0583 18.054 95.7763 17.928C95.5003 17.802 95.1763 17.739 94.8043 17.739C94.4383 17.739 94.1143 17.802 93.8323 17.928C93.5503 18.054 93.3133 18.228 93.1213 18.45C92.9293 18.666 92.7853 18.924 92.6893 19.224C92.5933 19.518 92.5453 19.836 92.5453 20.178ZM102.267 22.482C102.135 22.56 101.952 22.599 101.718 22.599C101.52 22.599 101.361 22.545 101.241 22.437C101.127 22.323 101.07 22.14 101.07 21.888C100.86 22.14 100.614 22.323 100.332 22.437C100.056 22.545 99.7563 22.599 99.4323 22.599C99.2223 22.599 99.0213 22.575 98.8293 22.527C98.6433 22.479 98.4813 22.404 98.3433 22.302C98.2053 22.2 98.0943 22.068 98.0103 21.906C97.9323 21.738 97.8933 21.537 97.8933 21.303C97.8933 21.039 97.9383 20.823 98.0283 20.655C98.1183 20.487 98.2353 20.352 98.3793 20.25C98.5293 20.142 98.6973 20.061 98.8833 20.007C99.0753 19.953 99.2703 19.908 99.4683 19.872C99.6783 19.83 99.8763 19.8 100.062 19.782C100.254 19.758 100.422 19.728 100.566 19.692C100.71 19.65 100.824 19.593 100.908 19.521C100.992 19.443 101.034 19.332 101.034 19.188C101.034 19.02 101.001 18.885 100.935 18.783C100.875 18.681 100.794 18.603 100.692 18.549C100.596 18.495 100.485 18.459 100.359 18.441C100.239 18.423 100.119 18.414 99.9993 18.414C99.6753 18.414 99.4053 18.477 99.1893 18.603C98.9733 18.723 98.8563 18.954 98.8383 19.296H98.0733C98.0853 19.008 98.1453 18.765 98.2533 18.567C98.3613 18.369 98.5053 18.21 98.6853 18.09C98.8653 17.964 99.0693 17.874 99.2973 17.82C99.5313 17.766 99.7803 17.739 100.044 17.739C100.254 17.739 100.461 17.754 100.665 17.784C100.875 17.814 101.064 17.877 101.232 17.973C101.4 18.063 101.535 18.192 101.637 18.36C101.739 18.528 101.79 18.747 101.79 19.017V21.411C101.79 21.591 101.799 21.723 101.817 21.807C101.841 21.891 101.913 21.933 102.033 21.933C102.099 21.933 102.177 21.918 102.267 21.888V22.482ZM101.025 20.097C100.929 20.169 100.803 20.223 100.647 20.259C100.491 20.289 100.326 20.316 100.152 20.34C99.9843 20.358 99.8133 20.382 99.6393 20.412C99.4653 20.436 99.3093 20.478 99.1713 20.538C99.0333 20.598 98.9193 20.685 98.8293 20.799C98.7453 20.907 98.7033 21.057 98.7033 21.249C98.7033 21.375 98.7273 21.483 98.7753 21.573C98.8293 21.657 98.8953 21.726 98.9733 21.78C99.0573 21.834 99.1533 21.873 99.2613 21.897C99.3693 21.921 99.4833 21.933 99.6033 21.933C99.8553 21.933 100.071 21.9 100.251 21.834C100.431 21.762 100.578 21.675 100.692 21.573C100.806 21.465 100.89 21.351 100.944 21.231C100.998 21.105 101.025 20.988 101.025 20.88V20.097ZM103.717 20.214C103.717 19.986 103.741 19.764 103.789 19.548C103.837 19.332 103.915 19.14 104.023 18.972C104.131 18.804 104.275 18.669 104.455 18.567C104.635 18.465 104.854 18.414 105.112 18.414C105.376 18.414 105.601 18.465 105.787 18.567C105.973 18.663 106.123 18.792 106.237 18.954C106.357 19.116 106.444 19.305 106.498 19.521C106.552 19.731 106.579 19.95 106.579 20.178C106.579 20.394 106.552 20.607 106.498 20.817C106.45 21.027 106.369 21.216 106.255 21.384C106.141 21.546 105.994 21.678 105.814 21.78C105.634 21.882 105.415 21.933 105.157 21.933C104.911 21.933 104.695 21.885 104.509 21.789C104.329 21.693 104.179 21.564 104.059 21.402C103.945 21.24 103.858 21.057 103.798 20.853C103.744 20.643 103.717 20.43 103.717 20.214ZM107.317 22.5V16.074H106.552V18.468H106.534C106.45 18.33 106.345 18.216 106.219 18.126C106.099 18.03 105.97 17.955 105.832 17.901C105.694 17.841 105.556 17.799 105.418 17.775C105.28 17.751 105.151 17.739 105.031 17.739C104.677 17.739 104.365 17.805 104.095 17.937C103.831 18.063 103.609 18.237 103.429 18.459C103.255 18.675 103.123 18.93 103.033 19.224C102.949 19.518 102.907 19.83 102.907 20.16C102.907 20.49 102.952 20.802 103.042 21.096C103.132 21.39 103.264 21.648 103.438 21.87C103.618 22.092 103.84 22.269 104.104 22.401C104.374 22.533 104.689 22.599 105.049 22.599C105.373 22.599 105.67 22.542 105.94 22.428C106.21 22.314 106.408 22.128 106.534 21.87H106.552V22.5H107.317ZM111.917 20.178C111.917 19.896 111.953 19.647 112.025 19.431C112.103 19.209 112.208 19.023 112.34 18.873C112.472 18.723 112.625 18.609 112.799 18.531C112.979 18.453 113.168 18.414 113.366 18.414C113.564 18.414 113.75 18.453 113.924 18.531C114.104 18.609 114.26 18.723 114.392 18.873C114.524 19.023 114.626 19.209 114.698 19.431C114.776 19.647 114.815 19.896 114.815 20.178C114.815 20.46 114.776 20.712 114.698 20.934C114.626 21.15 114.524 21.333 114.392 21.483C114.26 21.627 114.104 21.738 113.924 21.816C113.75 21.894 113.564 21.933 113.366 21.933C113.168 21.933 112.979 21.894 112.799 21.816C112.625 21.738 112.472 21.627 112.34 21.483C112.208 21.333 112.103 21.15 112.025 20.934C111.953 20.712 111.917 20.46 111.917 20.178ZM111.107 20.178C111.107 20.52 111.155 20.838 111.251 21.132C111.347 21.426 111.491 21.684 111.683 21.906C111.875 22.122 112.112 22.293 112.394 22.419C112.676 22.539 113 22.599 113.366 22.599C113.738 22.599 114.062 22.539 114.338 22.419C114.62 22.293 114.857 22.122 115.049 21.906C115.241 21.684 115.385 21.426 115.481 21.132C115.577 20.838 115.625 20.52 115.625 20.178C115.625 19.836 115.577 19.518 115.481 19.224C115.385 18.924 115.241 18.666 115.049 18.45C114.857 18.228 114.62 18.054 114.338 17.928C114.062 17.802 113.738 17.739 113.366 17.739C113 17.739 112.676 17.802 112.394 17.928C112.112 18.054 111.875 18.228 111.683 18.45C111.491 18.666 111.347 18.924 111.251 19.224C111.155 19.518 111.107 19.836 111.107 20.178ZM116.707 17.847V22.5H117.472V19.872C117.472 19.662 117.499 19.47 117.553 19.296C117.613 19.116 117.7 18.96 117.814 18.828C117.928 18.696 118.069 18.594 118.237 18.522C118.411 18.45 118.615 18.414 118.849 18.414C119.143 18.414 119.374 18.498 119.542 18.666C119.71 18.834 119.794 19.062 119.794 19.35V22.5H120.559V19.44C120.559 19.188 120.532 18.96 120.478 18.756C120.43 18.546 120.343 18.366 120.217 18.216C120.091 18.066 119.926 17.949 119.722 17.865C119.518 17.781 119.263 17.739 118.957 17.739C118.267 17.739 117.763 18.021 117.445 18.585H117.427V17.847H116.707ZM125.635 17.847V16.452H124.87V17.847H124.078V18.522H124.87V21.483C124.87 21.699 124.891 21.873 124.933 22.005C124.975 22.137 125.038 22.239 125.122 22.311C125.212 22.383 125.326 22.434 125.464 22.464C125.608 22.488 125.779 22.5 125.977 22.5H126.562V21.825H126.211C126.091 21.825 125.992 21.822 125.914 21.816C125.842 21.804 125.785 21.783 125.743 21.753C125.701 21.723 125.671 21.681 125.653 21.627C125.641 21.573 125.635 21.501 125.635 21.411V18.522H126.562V17.847H125.635ZM127.592 16.074V22.5H128.357V19.872C128.357 19.662 128.384 19.47 128.438 19.296C128.498 19.116 128.585 18.96 128.699 18.828C128.813 18.696 128.954 18.594 129.122 18.522C129.296 18.45 129.5 18.414 129.734 18.414C130.028 18.414 130.259 18.498 130.427 18.666C130.595 18.834 130.679 19.062 130.679 19.35V22.5H131.444V19.44C131.444 19.188 131.417 18.96 131.363 18.756C131.315 18.546 131.228 18.366 131.102 18.216C130.976 18.066 130.811 17.949 130.607 17.865C130.403 17.781 130.148 17.739 129.842 17.739C129.704 17.739 129.56 17.754 129.41 17.784C129.266 17.814 129.125 17.862 128.987 17.928C128.855 17.988 128.735 18.069 128.627 18.171C128.519 18.267 128.435 18.387 128.375 18.531H128.357V16.074H127.592ZM136.004 19.728H133.331C133.343 19.548 133.382 19.38 133.448 19.224C133.514 19.062 133.604 18.921 133.718 18.801C133.832 18.681 133.967 18.588 134.123 18.522C134.285 18.45 134.465 18.414 134.663 18.414C134.855 18.414 135.029 18.45 135.185 18.522C135.347 18.588 135.485 18.681 135.599 18.801C135.719 18.915 135.812 19.053 135.878 19.215C135.95 19.377 135.992 19.548 136.004 19.728ZM136.742 21.024H135.986C135.92 21.33 135.782 21.558 135.572 21.708C135.368 21.858 135.104 21.933 134.78 21.933C134.528 21.933 134.309 21.891 134.123 21.807C133.937 21.723 133.784 21.612 133.664 21.474C133.544 21.33 133.457 21.168 133.403 20.988C133.349 20.802 133.325 20.607 133.331 20.403H136.814C136.826 20.121 136.799 19.824 136.733 19.512C136.673 19.2 136.559 18.912 136.391 18.648C136.229 18.384 136.01 18.168 135.734 18C135.464 17.826 135.122 17.739 134.708 17.739C134.39 17.739 134.096 17.799 133.826 17.919C133.562 18.039 133.331 18.207 133.133 18.423C132.941 18.639 132.791 18.894 132.683 19.188C132.575 19.482 132.521 19.806 132.521 20.16C132.533 20.514 132.584 20.841 132.674 21.141C132.77 21.441 132.911 21.699 133.097 21.915C133.283 22.131 133.511 22.299 133.781 22.419C134.057 22.539 134.381 22.599 134.753 22.599C135.281 22.599 135.719 22.467 136.067 22.203C136.415 21.939 136.64 21.546 136.742 21.024Z" fill="white"/>
<path d="M82.9199 29.9766C85.2177 29.9766 86.7324 31.793 86.7324 34.5987C86.7324 37.4122 85.2266 39.2198 82.9541 39.2198C81.7795 39.2812 80.6731 38.666 80.1055 37.6358H80.0625V42.1202H78.2041V30.0713H80.0029V31.5772H80.0371C80.6299 30.5534 81.7375 29.9385 82.9199 29.9766ZM92.8847 29.9766C95.1826 29.9766 96.6973 31.793 96.6973 34.5987C96.6973 37.4122 95.1914 39.2198 92.9189 39.2198C91.7443 39.2812 90.6379 38.666 90.0703 37.6358H90.0273V42.1202H88.1689V30.0713H89.9677V31.5772H90.0019C90.5947 30.5534 91.7023 29.9385 92.8847 29.9766ZM106.227 26.5C108.851 26.5 110.649 27.9717 110.71 30.1143H108.834C108.722 28.875 107.697 28.127 106.2 28.127C104.703 28.127 103.679 28.8838 103.679 29.9854C103.679 30.8633 104.333 31.3799 105.934 31.7754L107.302 32.1113C109.85 32.7138 110.908 33.7373 110.908 35.5537C110.908 37.8769 109.058 39.332 106.114 39.332C103.36 39.332 101.501 37.9111 101.381 35.665L103.283 35.6651C103.421 36.8965 104.617 37.7051 106.252 37.7051C107.818 37.7051 108.945 36.8965 108.945 35.7861C108.945 34.8223 108.266 34.2451 106.656 33.8496L105.047 33.4619C102.767 32.9111 101.708 31.8447 101.708 30.1143C101.708 27.9717 103.575 26.5 106.227 26.5ZM121.932 29.96C124.557 29.96 126.227 31.75 126.227 34.5987C126.227 37.4551 124.565 39.2374 121.932 39.2374C119.299 39.2374 117.638 37.4551 117.638 34.5987C117.638 31.7501 119.315 29.96 121.932 29.96ZM136.98 29.96C139.485 29.96 141.061 31.6807 141.061 34.4258V35.0625H134.666V35.1749C134.606 35.8489 134.839 36.5161 135.305 37.0067C135.771 37.4974 136.425 37.7642 137.102 37.7393C138.003 37.8238 138.854 37.3059 139.192 36.4659L140.957 36.4659C140.707 38.1094 139.106 39.2374 137.059 39.2374C134.425 39.2374 132.79 37.4727 132.79 34.6416C132.79 31.8018 134.434 29.96 136.98 29.96ZM114.919 27.9288V30.0713H116.641V31.543H114.919V36.5342C114.919 37.3096 115.264 37.6709 116.021 37.6709C116.225 37.6674 116.429 37.653 116.632 37.6279V39.0908C116.292 39.1544 115.946 39.1832 115.6 39.1768C113.767 39.1768 113.052 38.4883 113.052 36.7324V31.543H111.735V30.0713H113.052V27.9288H114.919ZM72.5664 26.7071L77.0498 39.1251H75.0107L73.875 35.7686H69.1416L68.0049 39.1251H66L70.4834 26.7071H72.5664ZM131.752 29.9766C131.966 29.9759 132.18 29.9991 132.389 30.0459V31.7842C132.118 31.7016 131.836 31.6637 131.554 31.6719C131.007 31.6498 130.479 31.8675 130.106 32.268C129.734 32.6684 129.555 33.2116 129.617 33.7549V39.125H127.759V30.0713H129.531V31.6123H129.574C129.821 30.6203 130.73 29.9376 131.752 29.9766ZM121.932 31.4913C120.426 31.4913 119.531 32.6534 119.531 34.5987C119.531 36.5606 120.426 37.7051 121.932 37.7051C123.438 37.7051 124.333 36.5606 124.333 34.5987C124.333 32.6446 123.438 31.4913 121.932 31.4913ZM82.4297 31.5606C81.0098 31.5606 80.0547 32.7911 80.0547 34.5987C80.0547 36.4229 81.0098 37.6446 82.4297 37.6446C83.875 37.6446 84.8223 36.4483 84.8223 34.5987C84.8223 32.7657 83.875 31.5606 82.4297 31.5606ZM92.3945 31.5606C90.9746 31.5606 90.0195 32.7911 90.0195 34.5987C90.0195 36.4229 90.9746 37.6446 92.3945 37.6446C93.8398 37.6446 94.7871 36.4483 94.7871 34.5987C94.7871 32.7657 93.8398 31.5606 92.3945 31.5606ZM71.5342 28.7725H71.4825L69.6318 34.2198H73.3838L71.5342 28.7725ZM136.98 31.4659C136.369 31.4622 135.782 31.7029 135.349 32.1344C134.916 32.5659 134.673 33.1525 134.675 33.7637H139.201C139.235 33.1581 139.014 32.5658 138.593 32.1296C138.171 31.6934 137.587 31.4528 136.98 31.4659Z" fill="white"/>
<!-- <rect x="0.5" y="0.5" width="181" height="55" rx="5.5" stroke="#A6A6A6"/> -->
</svg>
