<svg width="8" height="6" viewBox="0 0 8 6" fill="none" xmlns="http://www.w3.org/2000/svg">
<path d="M2.93237 5.04945L0.757894 2.88798C0.69713 2.82721 0.666748 2.74909 0.666748 2.6536C0.666748 2.55811 0.69713 2.47999 0.757894 2.41922L1.23966 1.95047C1.30043 1.88103 1.37638 1.84631 1.46753 1.84631C1.55867 1.84631 1.63897 1.88103 1.70841 1.95047L3.16674 3.40881L6.29173 0.283794C6.36118 0.214349 6.44147 0.179626 6.53262 0.179626C6.62376 0.179626 6.69972 0.214349 6.76048 0.283794L7.24225 0.752547C7.30301 0.813311 7.33339 0.891437 7.33339 0.986923C7.33339 1.08241 7.30301 1.16054 7.24225 1.2213L3.40111 5.04945C3.34035 5.11889 3.26223 5.15362 3.16674 5.15362C3.07125 5.15362 2.99313 5.11889 2.93237 5.04945Z" fill="#74ABAE"/>
</svg>
