<svg width="27" height="18" viewBox="0 0 27 18" fill="none" xmlns="http://www.w3.org/2000/svg">
<path d="M0.565975 1.46074C4.27152 4.25088 10.7736 9.1596 12.6846 10.6902C12.9412 10.8967 13.2163 11.0017 13.502 11.0017C13.7871 11.0017 14.0618 10.8977 14.3177 10.6921C16.2304 9.16007 22.7325 4.25088 26.4381 1.46074C26.6688 1.28736 26.704 0.982607 26.5172 0.770642C26.0854 0.280838 25.4416 0 24.7517 0H2.25232C1.56242 0 0.9186 0.280839 0.486875 0.770689C0.300095 0.982607 0.335268 1.28736 0.565975 1.46074Z" fill="#221F20"/>
<path d="M26.673 2.96912C26.4736 2.88661 26.2391 2.9154 26.0732 3.04142C21.9638 6.13871 16.7191 10.1088 15.069 11.4308C14.1428 12.1741 12.8575 12.1741 11.9292 11.4298C10.1703 10.0208 4.28065 5.56925 0.926097 3.04137C0.759091 2.91535 0.524008 2.88755 0.326259 2.96908C0.127456 3.05117 0 3.22797 0 3.42283V15.9996C0 17.1029 1.00905 18 2.24996 18H24.7494C25.9902 18 26.9993 17.1029 26.9993 15.9996V3.42283C26.9993 3.22797 26.8718 3.0507 26.673 2.96912Z" fill="#221F20"/>
</svg>
