<svg width="24" height="24" fill="none" xmlns="http://www.w3.org/2000/svg"><rect width="24" height="24" rx="6" fill="#232249"/><path d="M17.815 15.693c0 .21-.047.425-.146.635-.099.21-.227.409-.396.595a2.63 2.63 0 0 1-.957.689c-.35.146-.73.221-1.137.221-.595 0-1.231-.14-1.902-.425a10.26 10.26 0 0 1-2.007-1.155 16.76 16.76 0 0 1-1.913-1.634 16.57 16.57 0 0 1-1.628-1.907 10.401 10.401 0 0 1-1.143-1.99c-.28-.664-.42-1.3-.42-1.907 0-.397.07-.776.21-1.126.14-.356.362-.682.67-.974.374-.367.783-.548 1.214-.548.164 0 .327.035.473.105a.95.95 0 0 1 .39.326l1.354 1.908c.105.146.18.28.233.408a.922.922 0 0 1 .082.356c0 .14-.041.28-.123.414a1.982 1.982 0 0 1-.326.414l-.444.461a.312.312 0 0 0-.093.234.52.52 0 0 0 .018.134c.017.046.035.081.046.116.105.193.286.444.543.747.262.303.542.613.845.922.316.309.619.595.928.857.303.257.554.432.752.537.03.012.065.03.105.047a.403.403 0 0 0 .146.023.32.32 0 0 0 .24-.1l.443-.437c.146-.146.286-.256.42-.326a.777.777 0 0 1 .414-.123.93.93 0 0 1 .356.076c.128.052.262.128.408.227l1.931 1.371a.884.884 0 0 1 .32.374c.06.145.094.291.094.455Z" stroke="#fff" stroke-width="1.5" stroke-miterlimit="10"/></svg>