<svg width="24" height="25" fill="none" xmlns="http://www.w3.org/2000/svg"><rect y=".5" width="24" height="24" rx="6" fill="#232249"/><path fill-rule="evenodd" clip-rule="evenodd" d="M12 19.063a6.562 6.562 0 1 0 0-13.125 6.562 6.562 0 0 0 0 13.125Zm2.445-3.806a.4.4 0 0 0 .538-.121.362.362 0 0 0-.134-.513c-1.645-.96-3.693-1.18-6.077-.661a.368.368 0 0 0-.292.44c.045.2.255.321.464.278 2.182-.47 4.029-.277 5.501.577Zm.628-1.587a.51.51 0 0 0 .673-.157.45.45 0 0 0-.15-.633c-1.936-1.132-4.761-1.445-7.033-.79a.457.457 0 0 0-.33.576c.076.242.345.378.606.306 1.988-.576 4.552-.291 6.234.698ZM8.54 11.13c1.929-.556 5.255-.449 7.273.69a.579.579 0 0 0 .792-.2.541.541 0 0 0-.202-.761c-2.317-1.31-5.994-1.437-8.207-.797-.306.093-.485.406-.388.697a.59.59 0 0 0 .732.37Z" fill="#fff"/></svg>