<svg width="24" height="24" fill="none" xmlns="http://www.w3.org/2000/svg"><rect width="24" height="24" rx="6" fill="#232249"/><path d="M9.404 17.687c5.282 0 8.172-4.377 8.172-8.171 0-.123-.003-.249-.009-.372A5.834 5.834 0 0 0 19 7.657a5.663 5.663 0 0 1-1.649.451 2.884 2.884 0 0 0 1.264-1.588c-.564.334-1.18.57-1.824.697a2.876 2.876 0 0 0-4.896 2.619 8.158 8.158 0 0 1-5.92-2.999 2.875 2.875 0 0 0 .89 3.833 2.874 2.874 0 0 1-1.302-.358v.035a2.87 2.87 0 0 0 2.305 2.817 2.855 2.855 0 0 1-1.296.049 2.878 2.878 0 0 0 2.682 1.996A5.76 5.76 0 0 1 5 16.397a8.149 8.149 0 0 0 4.404 1.29Z" fill="#fff"/></svg>