<svg width="52" height="55" fill="none" xmlns="http://www.w3.org/2000/svg"><path d="M.952 18.67c-.307-1.532-.526-4.638-.677-6.19-.133-1.384-.12-2.782-.172-4.176-.023 0-.056-1.461-.078-1.461-.082-.495.06.635.118-1.315.015-.509.123-1.024.252-1.523.117-.456 1.042-1.061 1.38-1.274.229-.07 1.616-.597 2.445-.49 1.073.14 1.499 1.01 1.61 1.932.138 1.125.236 2.474.245 3.607.023 3.3.05 5.714-.044 9.012-.032 1.093-.14 1.752-.462 2.816-.227.748-.919 1.377-1.764 1.331-1.64-.088-2.545-.742-2.853-2.272v.002Zm1.405 8.667c.995.151 1.98.053 2.915-.4.995-.48 1.502-1.548 1.356-2.838-.122-1.07-.694-1.744-1.853-1.846a10.875 10.875 0 0 0-2.793.139c-1.028.178-1.506.846-1.434 1.855.047.653.224 1.294.342 1.94.26.661.761 1.042 1.47 1.148l-.003.002Zm-.592-24.61c-.038.02-.03.02.01.007.147-.092.183-.11-.01-.008ZM30.61 25.16c1.029.659 2.908.813 3.85.892.657.056 1.065-.317 1.192-.9.115-.535.07-1.406.097-1.952.073-1.498.154-11.878.27-13.372.06-.768.151-1.58.497-2.277.723-1.457 2.886-1.047 3.374-1.013 1.354.095 2.791.59 3.022.676.505.188 1.167.168 1.415-.556.349-1.016.567-1.596.739-2.65.05-.314-.212-.84-.503-1.009-1.661-.971-5.765-1.738-8.1-.736-.199-.873-.765-1.416-1.795-1.508a10.875 10.875 0 0 0-2.793.139c-.986.17-1.46.797-1.435 1.738a5.3 5.3 0 0 0-.1.842c-.095 2.09-.075 1.678-.153 3.768-.005 0-.08 2.347-.087 2.347-.029.79.016 2.772-.043 5.388-.079 3.464-.464 6.357-.488 7.405-.014.649-.003 1.323.171 1.944.095.335.561.64.867.836l.003-.002Zm-12.165 2.08c-.701-.042-2.329.17-3.02.25-.792.093-1.272.876-1.343 1.744-.254 3.07-.012 3.655-.056 7.282-.007 1.718.056 2.692-.036 3.433l-.204.009c-.082-.196-.18-.387-.241-.589-.282-.928-1.418-5.9-1.703-6.827-.183-.599-.562-.87-1.134-.87-.356 0-.603-.004-.815-.008a36.6 36.6 0 0 1-.817-.03c-.573-.025-.932.229-1.074.82-.22.915-.945 5.377-1.161 6.294-.047.2-.132.386-.2.578l-.205-.019c-.144-.746-.078-1.585.19-3.29.463-2.952.535-3.638.44-4.72a3.711 3.711 0 0 0-.084-.699c-.228-1.052-.866-1.665-2.03-1.65-.81.01-1.643.134-2.443.335l-.11.018c-.23.04-.442.12-.632.229-.53.265-.813.7-.853 1.265 0 .006-.004.013-.004.02-.367 2.314.716 14.882 1.014 16.726.183 1.126.146 3.29 1.165 3.377 1.486.125 4.028.274 5.513.289.618.006 1.06-1.004 1.125-1.685.12-1.252.259-1.844.396-3.093.038-.345.11-.682.17-1.023l.118-.008.118.013c.082.343.18.684.242 1.032.226 1.256.438 3.764.646 5.023.114.686.628 1.718 1.246 1.74 1.487.053 4.017.325 5.495.27 1.014-.04.992-3.24 1.095-4.36.17-1.834 1.261-18.04.729-20.376-.196-.857-.752-1.454-1.536-1.5h-.001Zm31.173 1.494c-.776-.235-1.306-.034-2.203.028-.718.049-1.46.502-1.698 1.136-.18.483-.342.983-.411 1.487-.266 1.933-.33 2.51-.57 4.446.023.003-.117.699-.094.701-.097 1.39-.26 2.779-.274 4.17-.016 1.56.036 1.796.18 3.35.141 1.556.972 2.302 2.593 2.567.836.137 1.765.003 2.07-.716.435-1.024.437-1.42.586-2.502.447-3.269.772-5.889 1.1-9.171.111-1.128.135-2.269.119-3.403-.014-.929-.359-1.781-1.395-2.093h-.003Zm-1.89-11.025c-.247-.511-.142-.778.19-1.347 1.963-3.32 2.651-5.043 3.197-6.18.909-1.898 1.233-2.706.42-3.738-.598-.62-1.734-1.46-2.392-1.793-.636-.322-1.237-.216-1.745.253-.556.512-3 7.959-3.305 8.172-.054.134-.13.076-.132-.086 0-.107.065-.62.07-.716.148-2.036.172-.798.16-2.535-.006-.935-.336-1.081-1.404-1.346-.716-.178-1.784-.267-2.528-.238-1.362.052-1.889.341-2.085 1.516-.036.124-.2 4.248-.191 7.707.009 3.805-.171 8.063-.13 7.925-.045 2.04 1.843 1.702 3.242 1.623.966-.016 1.673.065 1.833-.766.144-.748.203-1.507.308-2.26.066-.467.151-.932.227-1.398.076-.084.153-.15.249.01.55.938 1.194 1.848 1.629 2.824.629 1.41 1.702 1.877 3.45 1.722 2.424-.214 2.992-.349 1.962-2.48-.928-2.33-1.921-4.59-3.026-6.867l.002-.002Zm.289 30.392c-.919.011-1.87.17-2.765.42-1.006.281-1.413.995-1.242 1.992.11.646.352 1.265.535 1.897.324.631.861.958 1.576.994 1.005.049 1.975-.148 2.86-.691.942-.579 1.34-1.693 1.064-2.961-.228-1.052-.866-1.665-2.03-1.651h.002ZM32.035 32.739c1.356.047 2.604.351 2.838.435.512.18.86-.138 1.278-.772.686-.961.908-2.085.834-2.69.04-.337-.707-.889-1.004-1.058-1.704-.977-5.877-1.26-8.168 0-.243-1.003-.877-1.585-2.009-1.571-.918.011-1.87.17-2.765.42-.428.12-.746.318-.959.583a.874.874 0 0 0-.224.398c-.086.238-.114.51-.085.81-.018 2.225-.005 4.084-.005 6.312h-.017c0 .847-.249 3.408-.21 6.209.04 3.105-.084 6.347-.059 8.07.01.697.046.814.244 1.471.107.356.573.696.898.86 1.164.586 2.792.569 3.734.615.66.033 1.053-.381 1.158-1.01.095-.577.157-1.167.163-1.752.018-1.605-.048-11.454.013-13.058.03-.824.092-1.695.411-2.456.67-1.588 3.445-1.832 3.934-1.816Zm-6.162-6.856c1.101-.062 1.437-.873 1.59-1.983.253-1.819 1.334-20.358.847-22.658-.179-.845-.264-1.212-1.112-1.24-.757-.025-2.516.208-3.267.304-.863.11-1.156.451-1.267 1.311-.394 3.045-.179 5.59-.365 9.18-.074 1.7-.044 2.66-.17 3.397l-.222.014c-.08-.192-.181-.379-.24-.577-.269-.912-1.277-6.643-1.55-7.555-.177-.587-.577-.847-1.197-.835-.385.008-.653.01-.883.012-.23 0-.498-.003-.883-.012-.62-.012-1.02.248-1.197.835-.273.91-1.28 6.643-1.55 7.555-.06.198-.16.385-.24.577l-.221-.014c-.127-.736.046-1.695.05-3.398.007-2.677.044-3.444.1-5.523.014-.137.017-.277.012-.42 0-.045.003-.087.004-.133.005-.2-.034-.4-.106-.589-.242-1.002-.877-1.583-2.009-1.569-.918.012-1.87.17-2.765.42-.86.24-1.282.8-1.278 1.582-.457 2.46.672 15.678.923 17.482.155 1.109-.113 3.816.988 3.877 1.605.09 4.363-.03 5.972-.05.669-.008 1.187-1.017 1.283-1.693.177-1.241.368-2.25.565-3.488.054-.343.147-.677.222-1.016l.129-.01.128.01c.076.339.169.673.223 1.016.196 1.239.387 2.247.565 3.488.096.676.615 1.685 1.283 1.693 1.609.019 4.03.098 5.636.009l.002.001Zm15.118 3.626c-.678-.247-1.665-.154-2.107.927-.646 1.577-2.644 8.608-3.296 9.097-.055.144-.131.082-.133-.092 0-.115.066-.663.071-.767.147-2.18.161-1.32.16-2.492 0-1-.336-1.157-1.404-1.442-.716-.19-1.784-.286-2.529-.254-1.361.056-1.888.365-2.084 1.623-.037.133-.2 4.326-.192 8.03.01 4.074-.039 9.043.002 8.897-.046 2.184 1.67 2.005 3.07 1.921.967-.017 1.715.043 1.874-.847.143-.801.202-2.182.308-2.988.065-.5.15-.998.226-1.496.067-.095.173-.137.25.01.55 1.006 1.193 1.979 1.629 3.025.629 1.51 1.702 2.01 3.45 1.844 2.423-.229 2.784-.442 1.962-2.655-.929-2.495-1.037-4.915-2.142-7.354-.247-.548-.385-.935-.006-1.404.619-1.458 3.024-6.091 3.81-9.608.067-.305-.202-1.196-.88-2.4-.745-.983-.892-1.154-2.04-1.573v-.002Z" fill="#221F20"/></svg>