<svg width="230" height="49" fill="none" xmlns="http://www.w3.org/2000/svg"><path d="m26.719 8.978 1.818-1.82c3.572-3.577 9.385-3.665 12.977-.11a9.185 9.185 0 0 1 1.789 10.545 4.409 4.409 0 0 0 .838 5.046 12.844 12.844 0 0 0 3.746-9.09 12.863 12.863 0 0 0-3.772-9.08c-5.022-5-13.175-4.901-18.183.114L8.6 21.939l-1.425-1.427c-3.632-3.636-3.655-9.58.04-13.153a9.165 9.165 0 0 1 10.48-1.585 4.12 4.12 0 0 0 4.786-.743l.044-.044a.147.147 0 0 0 0-.208 12.82 12.82 0 0 0-17.852-.057c-5.17 4.998-5.152 13.31-.07 18.4l17.329 17.351-1.84 1.844c-3.572 3.576-9.386 3.664-12.978.109A9.185 9.185 0 0 1 5.325 31.88a4.408 4.408 0 0 0-.838-5.046 12.847 12.847 0 0 0-3.747 9.09 12.86 12.86 0 0 0 3.772 9.08c5.023 5.001 13.175 4.902 18.183-.113l17.356-17.38 1.43 1.432c3.572 3.576 3.66 9.398.11 12.994a9.165 9.165 0 0 1-10.53 1.791 4.39 4.39 0 0 0-5.042.84 12.828 12.828 0 0 0 9.078 3.752 12.817 12.817 0 0 0 9.068-3.777c4.994-5.03 4.895-13.193-.113-18.207L26.719 8.977Zm-2.2 28.903-13.332-13.35 12.943-12.96 13.332 13.35-12.944 12.96Zm45.501 2.338c-2.653 0-4.681-.78-6.085-2.338-1.392-1.56-2.17-3.689-2.335-6.39l4.21-1.053c.208 4.215 1.611 6.323 4.21 6.323 2.104 0 3.157-1.054 3.157-3.162 0-.625-.088-1.201-.263-1.728a4.378 4.378 0 0 0-.773-1.466 9.062 9.062 0 0 0-.954-1.07 17.63 17.63 0 0 0-1.168-1.005l-5.261-4.215c-.965-.757-1.738-1.718-2.319-2.881-.57-1.175-.855-2.509-.855-4.002 0-2.173.674-3.902 2.022-5.186 1.349-1.285 3.136-1.927 5.361-1.927 2.39 0 4.286.587 5.69 1.762 1.414 1.164 2.285 2.816 2.614 4.956.033.23.071.55.115.955l-4.21 1.054a15.936 15.936 0 0 0-.082-.84c-.186-1.339-.608-2.41-1.266-3.21-.647-.813-1.6-1.219-2.86-1.219-1.01 0-1.788.285-2.336.856-.548.56-.822 1.345-.822 2.355 0 1.657.702 3.046 2.105 4.166l5.262 4.215c2.806 2.272 4.21 4.99 4.21 8.15 0 2.163-.67 3.854-2.007 5.072-1.326 1.218-3.113 1.828-5.36 1.828Zm16.164-3.459c1.107 0 2.16-.285 3.157-.855V22.864a5.862 5.862 0 0 1-.33-.198 3.29 3.29 0 0 0-.377-.214 4.614 4.614 0 0 0-.346-.198 2.357 2.357 0 0 0-.41-.18 2.749 2.749 0 0 0-.395-.132 2.36 2.36 0 0 0-.46-.116 3.022 3.022 0 0 0-.461-.032c-.351 0-.663.082-.938.246-.263.154-.482.34-.657.56-.176.22-.33.533-.46.939a9.53 9.53 0 0 0-.264 1.087c-.055.307-.098.724-.131 1.251-.033.516-.055.917-.066 1.202v4.446c.01.735.044 1.383.099 1.943.065.549.17 1.092.312 1.63.154.527.373.938.658 1.235.296.285.652.428 1.069.428Zm3.157 9.485V38.03a9.737 9.737 0 0 1-1.94 1.58c-.658.407-1.415.61-2.27.61-.811 0-1.535-.203-2.17-.61a4.899 4.899 0 0 1-1.513-1.597c-.373-.647-.685-1.41-.938-2.288a17.774 17.774 0 0 1-.51-2.618 26.183 26.183 0 0 1-.13-2.668v-3.21c0-.956.043-1.829.13-2.619.088-.79.247-1.57.478-2.338.23-.768.531-1.416.904-1.943a4.118 4.118 0 0 1 1.513-1.284c.625-.33 1.348-.494 2.17-.494.472 0 .91.066 1.316.197.416.121.811.319 1.184.593.383.274.68.516.888.724.219.198.515.494.888.89v-2.108h4.21v27.4h-4.21Zm10.589-6.026c-.92 0-1.66-.324-2.22-.972-.559-.658-.838-1.47-.838-2.437V18.846h4.209v16.68c0 .44.132.796.395 1.07.274.275.625.412 1.052.412.231 0 .455-.028.675-.082.219-.055.433-.149.641-.28a55.4 55.4 0 0 1 .51-.33c.12-.088.29-.23.509-.428.231-.197.373-.318.428-.362v-16.68h4.21v21.076h-4.21V37.65a71.1 71.1 0 0 1-.921.79c-.186.165-.477.39-.871.676a6.173 6.173 0 0 1-1.053.609c-.296.12-.668.23-1.118.33a5.906 5.906 0 0 1-1.398.164Zm19.009-3.459c.296 0 .581-.087.855-.262.285-.176.499-.346.641-.511.143-.165.318-.384.527-.659a.637.637 0 0 1 .082-.115v-5.829c-.175.121-.466.308-.872.56-.405.253-.729.461-.97.626a8.671 8.671 0 0 0-.871.658c-.34.275-.603.544-.79.807a3.98 3.98 0 0 0-.493.939 3.26 3.26 0 0 0-.214 1.169c0 1.745.702 2.618 2.105 2.618Zm-2.105 3.459c-1.173 0-2.17-.505-2.992-1.515-.812-1.021-1.217-2.168-1.217-3.441 0-1.021.17-1.949.51-2.783.35-.834.718-1.499 1.101-1.993.384-.504 1.025-1.02 1.924-1.547.899-.538 1.579-.906 2.039-1.104a106.76 106.76 0 0 1 2.401-.971 11.4 11.4 0 0 0 .444-.181v-1.515c0-1.065-.148-1.888-.444-2.47-.296-.593-.85-.89-1.661-.89-.723 0-1.244.253-1.562.758-.307.494-.482 1.18-.526 2.059-.011.12-.017.301-.017.543h-4.209c.022-2.02.586-3.628 1.693-4.825 1.108-1.196 2.648-1.794 4.621-1.794 1.962 0 3.503.609 4.621 1.827 1.129 1.208 1.693 2.805 1.693 4.792v9.484c0 2.196.181 3.952.543 5.27h-4.193l-.559-3.162c-.219.439-.4.78-.543 1.02a8.672 8.672 0 0 1-.592.907 4.073 4.073 0 0 1-.789.823 4.126 4.126 0 0 1-.987.494 3.79 3.79 0 0 1-1.299.214Zm12.053-.297V18.846h4.21v2.816c.428-.834 1.047-1.559 1.858-2.174.822-.625 1.732-.938 2.73-.938.033 0 .257.022.674.066v4.66a6.316 6.316 0 0 0-2.335-.462c-.877 0-1.584.264-2.121.79-.537.528-.806 1.225-.806 2.092v14.226h-4.21Zm17.2.297c-1.019 0-1.907-.176-2.663-.527-.746-.351-1.343-.807-1.793-1.367-.438-.57-.795-1.295-1.069-2.173a15.555 15.555 0 0 1-.575-2.651 34.13 34.13 0 0 1-.181-3.096 38.66 38.66 0 0 1 0-2.766c.033-1.098.104-2.07.214-2.915.12-.856.323-1.685.608-2.486.285-.801.652-1.46 1.102-1.976.46-.516 1.058-.928 1.792-1.235.746-.318 1.612-.477 2.598-.477.899 0 1.689.12 2.368.362.691.23 1.261.587 1.71 1.07a6.41 6.41 0 0 1 1.135 1.58c.307.583.537 1.29.691 2.125.153.823.257 1.636.312 2.437.066.801.099 1.723.099 2.766v.494h-8.419v1.729a16.03 16.03 0 0 0-.017 1.268l.066 1.268c.022.417.082.818.181 1.202.098.373.219.702.362.988.142.285.339.51.591.675.264.165.571.247.921.247.439 0 .801-.082 1.086-.247a1.52 1.52 0 0 0 .624-.774c.143-.34.242-.68.296-1.02a9.59 9.59 0 0 0 .099-1.285v-.89h4.177v.84c-.099 2.25-.652 3.952-1.661 5.105-1.009 1.152-2.56 1.729-4.654 1.729Zm-2.071-12.942h4.176v-1.268a13.655 13.655 0 0 0-.098-1.466 6.524 6.524 0 0 0-.296-1.251c-.132-.417-.34-.736-.625-.955-.285-.22-.636-.33-1.053-.33-.427 0-.789.116-1.085.346-.285.23-.499.566-.641 1.005a7.73 7.73 0 0 0-.28 1.268 13.66 13.66 0 0 0-.098 1.498v1.153Zm19.337 12.942c-2.653 0-4.681-.78-6.084-2.338-1.392-1.56-2.17-3.689-2.335-6.39l4.21-1.053c.208 4.215 1.611 6.323 4.209 6.323 2.105 0 3.157-1.054 3.157-3.162 0-.625-.087-1.201-.263-1.728a4.366 4.366 0 0 0-.773-1.466 8.994 8.994 0 0 0-.953-1.07 17.48 17.48 0 0 0-1.168-1.005l-5.262-4.215c-.964-.757-1.737-1.718-2.318-2.881-.57-1.175-.855-2.509-.855-4.002 0-2.173.674-3.902 2.022-5.186 1.349-1.285 3.135-1.927 5.361-1.927 2.39 0 4.286.587 5.689 1.762 1.414 1.164 2.286 2.816 2.615 4.956.033.23.071.55.115.955l-4.21 1.054a15.672 15.672 0 0 0-.082-.84c-.186-1.339-.608-2.41-1.266-3.21-.647-.813-1.601-1.219-2.861-1.219-1.009 0-1.787.285-2.335.856-.548.56-.822 1.345-.822 2.355 0 1.657.701 3.046 2.104 4.166l5.262 4.215c2.807 2.272 4.21 4.99 4.21 8.15 0 2.163-.669 3.854-2.006 5.072-1.327 1.218-3.114 1.828-5.361 1.828Zm16.098 0c-1.655 0-2.861-.423-3.617-1.268-.746-.845-1.129-2.124-1.151-3.837V22.008h-2.105v-3.162h2.105V11.47h4.209v7.377h3.158v3.162h-3.158v12.3c0 .845.115 1.465.346 1.86.23.395.696.593 1.397.593.307 0 .779-.055 1.415-.165v3.425c-1.053.132-1.919.198-2.599.198Zm16.312-1.976c-.975 1.317-2.592 1.976-4.85 1.976-2.259 0-3.876-.659-4.851-1.976-.976-1.317-1.464-3.217-1.464-5.697v-6.323c0-2.481.488-4.38 1.464-5.697.975-1.318 2.592-1.976 4.851-1.976 2.258 0 3.875.658 4.85 1.976.976 1.317 1.464 3.216 1.464 5.697v6.323c0 2.48-.488 4.38-1.464 5.697Zm-5.64-1.614c.231.088.494.132.79.132.296 0 .553-.044.772-.132.231-.088.417-.192.56-.313.153-.131.279-.318.378-.56.098-.252.175-.471.23-.658.055-.187.093-.456.115-.807.022-.351.033-.626.033-.823.011-.209.016-.516.016-.922v-6.323c0-.406-.005-.708-.016-.906 0-.208-.011-.488-.033-.84a3.886 3.886 0 0 0-.115-.806 7.026 7.026 0 0 0-.23-.643c-.099-.252-.225-.439-.378-.56a1.715 1.715 0 0 0-.56-.329 2.066 2.066 0 0 0-.772-.131c-.296 0-.559.043-.79.131a1.992 1.992 0 0 0-.559.33c-.142.12-.263.307-.362.56a7.026 7.026 0 0 0-.23.642 3.886 3.886 0 0 0-.115.806c-.022.352-.038.632-.049.84v8.151c.011.197.027.472.049.823.022.351.06.62.115.807.055.187.132.406.23.659.099.241.22.428.362.56.154.12.34.224.559.312Zm10.557 3.293V18.846h4.21v2.272a21.77 21.77 0 0 1 1.529-1.3c.395-.308.937-.593 1.628-.857a6.082 6.082 0 0 1 2.236-.411c.899 0 1.628.329 2.187.988.559.658.839 1.465.839 2.42v17.964h-4.21V24.115c0-.735-.104-1.268-.312-1.597-.209-.34-.631-.51-1.266-.51-.362 0-.724.076-1.086.23-.35.143-.614.28-.789.412-.175.12-.428.318-.756.593v16.68h-4.21Zm22.265.297c-1.02 0-1.908-.176-2.664-.527-.746-.351-1.343-.807-1.793-1.367-.438-.57-.794-1.295-1.068-2.173a15.559 15.559 0 0 1-.576-2.651 34.13 34.13 0 0 1-.181-3.096 38.66 38.66 0 0 1 0-2.766c.033-1.098.104-2.07.214-2.915.121-.856.323-1.685.608-2.486.285-.801.653-1.46 1.102-1.976.461-.516 1.058-.928 1.792-1.235.746-.318 1.612-.477 2.599-.477.898 0 1.688.12 2.367.362.691.23 1.261.587 1.711 1.07.46.472.838 1 1.134 1.58.307.583.537 1.29.691 2.125.153.823.257 1.636.312 2.437.066.801.099 1.723.099 2.766v.494h-8.419v1.729a16.03 16.03 0 0 0-.017 1.268l.066 1.268c.022.417.082.818.181 1.202.099.373.219.702.362.988.142.285.34.51.592.675a1.7 1.7 0 0 0 .921.247c.438 0 .8-.082 1.085-.247.285-.176.493-.434.625-.774.142-.34.241-.68.296-1.02a9.78 9.78 0 0 0 .098-1.285v-.89h4.177v.84c-.099 2.25-.652 3.952-1.661 5.105-1.008 1.152-2.56 1.729-4.653 1.729Zm-2.072-12.942h4.176v-1.268a13.4 13.4 0 0 0-.098-1.466 6.524 6.524 0 0 0-.296-1.251c-.132-.417-.34-.736-.625-.955-.285-.22-.636-.33-1.052-.33-.428 0-.79.116-1.086.346-.285.23-.499.566-.641 1.005a7.73 7.73 0 0 0-.28 1.268c-.054.417-.087.916-.098 1.498v1.153Z" fill="#221F20"/></svg>