<svg width="52" height="55" viewBox="0 0 52 55" fill="none" xmlns="http://www.w3.org/2000/svg">
<path d="M0.95191 18.6694C0.644955 17.1385 0.42606 14.0325 0.275098 12.4801C0.141749 11.0958 0.154329 9.69751 0.10275 8.3043C0.0801057 8.3043 0.047397 6.84289 0.0247527 6.84289C-0.0570183 6.34775 0.0851378 7.47823 0.143006 5.52799C0.158103 5.01896 0.266292 4.50361 0.39461 4.00468C0.511605 3.5487 1.4375 2.94367 1.77591 2.73147C2.00361 2.66074 3.3912 2.13402 4.22023 2.24139C5.29332 2.38159 5.71853 3.25187 5.83049 4.17268C5.96762 5.29811 6.06574 6.6471 6.07455 7.78011C6.09845 11.0793 6.12487 13.4944 6.03052 16.7924C5.99907 17.885 5.89088 18.5443 5.56883 19.6078C5.34238 20.3556 4.65048 20.9846 3.80509 20.9392C2.1659 20.8507 1.26012 20.1965 0.95191 18.6668V18.6694ZM2.35711 27.3368C3.3522 27.4884 4.33723 27.3898 5.27193 26.9377C6.26702 26.4564 6.77401 25.3891 6.62808 24.0994C6.50605 23.0296 5.93365 22.3551 4.77502 22.2528C3.85918 22.1707 2.89806 22.2338 1.98223 22.3917C0.954427 22.5698 0.476381 23.238 0.548088 24.2472C0.594634 24.9003 0.772015 25.5407 0.890268 26.1874C1.14942 26.848 1.65137 27.2294 2.35963 27.3355L2.35711 27.3368ZM1.76459 2.72642C1.72685 2.74663 1.73565 2.74663 1.77465 2.734C1.92184 2.64179 1.95832 2.62411 1.76459 2.72642ZM30.6096 25.1605C31.6387 25.8185 33.5182 25.9726 34.4592 26.0522C35.1171 26.1078 35.5247 25.7352 35.6518 25.1529C35.7675 24.6173 35.7222 23.7458 35.7486 23.2001C35.8216 21.7021 35.9034 11.3219 36.0191 9.82761C36.0782 9.05964 36.1701 8.24872 36.516 7.55149C37.2394 6.09386 39.4019 6.50437 39.89 6.53848C41.2436 6.63321 42.6815 7.12835 42.9118 7.21424C43.4175 7.40244 44.0792 7.38223 44.327 6.65847C44.6755 5.64167 44.8944 5.0619 45.0655 4.00721C45.1158 3.69396 44.8541 3.16851 44.5635 2.99925C42.9017 2.02792 38.798 1.26122 36.4632 2.26286C36.2644 1.39005 35.6983 0.846917 34.668 0.75471C33.7521 0.672608 32.791 0.735763 31.8752 0.893651C30.8889 1.06417 30.4146 1.69067 30.4398 2.63169C30.3832 2.90199 30.353 3.18998 30.3404 3.47418C30.2448 5.56336 30.2649 5.15158 30.1869 7.24203C30.1819 7.24203 30.1064 9.58888 30.1001 9.58888C30.0712 10.3796 30.1165 12.3614 30.0574 14.9773C29.9781 18.4407 29.5931 21.3345 29.5692 22.3816C29.5554 23.0309 29.5655 23.7054 29.7403 24.3255C29.8347 24.6615 30.3014 24.9659 30.6071 25.1617L30.6096 25.1605ZM18.4446 27.2395C17.7439 27.1979 16.116 27.4101 15.4254 27.4909C14.6328 27.5831 14.1535 28.3662 14.0818 29.234C13.8277 32.3046 14.0705 32.8894 14.0265 36.5158C14.0189 38.2336 14.0818 39.2075 13.99 39.9489L13.7862 39.9578C13.7044 39.762 13.6063 39.5712 13.5446 39.3692C13.2629 38.4408 12.1269 33.4692 11.8425 32.5421C11.6589 31.9433 11.2802 31.6718 10.7078 31.6718C10.3518 31.6718 10.1052 31.668 9.89263 31.6642C9.68002 31.6591 9.43219 31.6503 9.07617 31.6339C8.50252 31.6086 8.14398 31.8625 8.00183 32.4536C7.78293 33.3694 7.05706 37.8307 6.84068 38.7477C6.79413 38.9473 6.70859 39.1342 6.64066 39.3262C6.57272 39.3199 6.50353 39.3136 6.4356 39.3073C6.29219 38.5608 6.3576 37.7221 6.62556 36.0169C7.08851 33.065 7.16148 32.3791 7.06587 31.2966C7.06083 31.0705 7.03316 30.8381 6.98158 30.5981C6.75388 29.546 6.11606 28.9334 4.9524 28.9473C4.14224 28.9574 3.30943 29.0824 2.50933 29.2832C2.47033 29.2896 2.43259 29.2946 2.39863 29.3009C2.16841 29.3413 1.95706 29.4209 1.7671 29.5295C1.23748 29.7948 0.954426 30.2293 0.91417 30.7952C0.91417 30.8015 0.910396 30.8078 0.910396 30.8141C0.543055 33.1294 1.62621 45.6973 1.92436 47.5415C2.10677 48.6669 2.07029 50.8318 3.08928 50.9177C4.575 51.0428 7.11744 51.1918 8.6019 51.207C9.21959 51.2133 9.66115 50.2028 9.72657 49.522C9.84608 48.2703 9.98572 47.6779 10.1228 46.4287C10.1606 46.0838 10.2335 45.7466 10.2927 45.4055C10.3317 45.403 10.3719 45.4005 10.4109 45.398C10.4499 45.4018 10.4902 45.4068 10.5292 45.4106C10.611 45.7542 10.7091 46.0952 10.7707 46.4426C10.9972 47.6993 11.2085 50.2066 11.4173 51.4659C11.5306 52.1518 12.0451 53.1838 12.6628 53.2052C14.1498 53.2595 16.6796 53.5311 18.1578 53.4755C19.1717 53.4364 19.1504 50.2357 19.2535 49.1165C19.4221 47.2825 20.5141 31.0756 19.9819 28.7401C19.7857 27.8825 19.2296 27.2863 18.4459 27.2395H18.4446ZM49.6182 28.7338C48.842 28.4989 48.3124 28.6997 47.4155 28.7616C46.6971 28.8108 45.9549 29.2643 45.7171 29.8984C45.5372 30.3809 45.375 30.8811 45.3058 31.3851C45.0403 33.3176 44.9762 33.8948 44.7359 35.8312C44.7585 35.8337 44.6189 36.5297 44.6415 36.5322C44.5447 37.9216 44.3824 39.311 44.3685 40.7017C44.3522 42.2617 44.4038 42.4979 44.5472 44.0527C44.6893 45.6076 45.5196 46.3541 47.1412 46.6194C47.9765 46.7558 48.9062 46.6219 49.2119 45.9032C49.6459 44.8788 49.6484 44.4835 49.7969 43.401C50.2435 40.1321 50.5693 37.5124 50.8964 34.2296C51.0083 33.1016 51.0322 31.961 51.0159 30.8268C51.0021 29.8984 50.6574 29.0458 49.6208 28.7338H49.6182ZM47.7287 17.7094C47.4809 17.1978 47.5865 16.9313 47.9174 16.3617C49.8812 13.0422 50.5693 11.3193 51.1153 10.1813C52.0236 8.28409 52.3481 7.4757 51.5342 6.44374C50.9366 5.82356 49.8007 4.98485 49.1427 4.65139C48.5074 4.3293 47.9061 4.4354 47.3978 4.90402C46.8418 5.41557 44.3975 12.8629 44.093 13.0763C44.0389 13.2102 43.9622 13.1521 43.9609 12.9904C43.9609 12.8831 44.0264 12.3702 44.0314 12.2742C44.1786 10.2381 44.2025 11.476 44.1912 9.73919C44.1849 8.80449 43.8553 8.65797 42.7872 8.39272C42.0714 8.21462 41.0033 8.1262 40.2586 8.15525C38.8974 8.20704 38.3703 8.49629 38.1741 9.67098C38.1376 9.79477 37.974 13.9188 37.9829 17.3785C37.9917 21.1829 37.8118 25.4409 37.8533 25.3032C37.808 27.3431 39.6963 27.0046 41.0952 26.9263C42.0613 26.9099 42.7683 26.9907 42.9281 26.1596C43.0715 25.4118 43.1307 24.6527 43.2363 23.8999C43.3017 23.4325 43.3873 22.9677 43.4628 22.5016C43.5395 22.4183 43.6162 22.3526 43.7119 22.5117C44.2629 23.4502 44.9057 24.3597 45.341 25.336C45.97 26.7469 47.0431 27.213 48.7917 27.0576C51.2147 26.8442 51.7833 26.709 50.753 24.5782C49.8246 22.2477 48.832 19.988 47.7274 17.7107L47.7287 17.7094ZM48.0168 48.101C47.0984 48.1124 46.1474 48.2715 45.2517 48.5216C44.2465 48.802 43.8389 49.5157 44.01 50.5135C44.1207 51.159 44.3623 51.7779 44.5447 52.4095C44.8692 53.041 45.4064 53.3682 46.121 53.4035C47.1261 53.4528 48.096 53.2557 48.9804 52.7126C49.9227 52.1341 50.3202 51.0201 50.0447 49.7519C49.817 48.6997 49.1792 48.0871 48.0155 48.101H48.0168ZM32.035 32.7391C33.3911 32.7858 34.639 33.0902 34.873 33.1736C35.3851 33.3542 35.7335 33.0359 36.1512 32.4019C36.8368 31.4406 37.0595 30.3165 36.9852 29.7127C37.0242 29.3754 36.2782 28.8235 35.9813 28.6542C34.2767 27.6766 30.1039 27.3949 27.8131 28.6542C27.5703 27.6513 26.9362 27.069 25.804 27.0829C24.8857 27.0943 23.9346 27.2534 23.0389 27.5035C22.6112 27.6223 22.2929 27.8206 22.0803 28.0858C21.9771 28.1856 21.9054 28.3157 21.8564 28.4837C21.7696 28.7224 21.7419 28.994 21.7708 29.2946C21.7532 31.5189 21.7658 33.3782 21.7658 35.6064H21.7494C21.7494 36.4526 21.5003 39.0142 21.5381 41.8145C21.5796 44.9205 21.455 48.1616 21.4802 49.8858C21.4903 50.5818 21.5255 50.6992 21.7243 51.356C21.8312 51.7122 22.2967 52.052 22.6225 52.2162C23.7861 52.8023 25.414 52.7846 26.3563 52.8313C27.0155 52.8642 27.4092 52.4499 27.5136 51.8209C27.6093 51.2436 27.6709 50.6537 27.6772 50.0689C27.6948 48.4635 27.6294 38.6151 27.6898 37.0109C27.72 36.1874 27.7816 35.3158 28.1011 34.5555C28.7704 32.9665 31.5456 32.7227 32.035 32.7391ZM25.8732 25.883C26.974 25.8211 27.3099 25.0102 27.4633 23.8999C27.7162 22.081 28.7968 3.54239 28.31 1.24227C28.1313 0.39725 28.0458 0.0296856 27.1979 0.00189727C26.4406 -0.0233649 24.6819 0.21031 23.9308 0.306306C23.0678 0.416197 22.7747 0.757235 22.664 1.61741C22.2702 4.6615 22.4854 7.20666 22.2992 10.7964C22.225 12.4966 22.2551 13.4578 22.1281 14.1942L21.9067 14.2081C21.8262 14.0161 21.7255 13.8291 21.6677 13.6308C21.3984 12.7189 20.3895 6.98814 20.1165 6.07618C19.9404 5.48883 19.5403 5.22863 18.9201 5.24127C18.5352 5.24884 18.2672 5.25137 18.037 5.25263C17.8068 5.25263 17.5388 5.25011 17.1539 5.24127C16.5337 5.22863 16.1336 5.48883 15.9575 6.07618C15.6845 6.98688 14.6769 12.7189 14.4064 13.6308C14.3473 13.8291 14.2479 14.0161 14.1674 14.2081L13.946 14.1942C13.8189 13.4578 13.9925 12.4991 13.9963 10.7964C14.0026 8.11862 14.0403 7.35192 14.0969 5.27284C14.1095 5.13643 14.1133 4.99622 14.1082 4.85349C14.1082 4.80802 14.1108 4.76634 14.112 4.7196C14.117 4.52003 14.078 4.32046 14.0063 4.13099C13.7635 3.12935 13.1295 2.54832 11.9973 2.56222C11.0789 2.57358 10.1279 2.73274 9.23217 2.98283C8.37169 3.22282 7.95025 3.78238 7.95402 4.56424C7.49737 7.02477 8.6258 20.2419 8.87741 22.0456C9.03214 23.1546 8.76419 25.8615 9.86495 25.9234C11.4702 26.0131 14.2277 25.8931 15.8367 25.8729C16.506 25.8653 17.0243 24.8561 17.1199 24.1803C17.2973 22.9387 17.4885 21.9307 17.6848 20.6916C17.7389 20.3493 17.832 20.0146 17.9074 19.6761C17.9502 19.6723 17.993 19.6697 18.0358 19.6659C18.0785 19.6697 18.1213 19.6723 18.1641 19.6761C18.2396 20.0146 18.3327 20.3493 18.3867 20.6916C18.583 21.9307 18.7742 22.9387 18.9516 24.1803C19.0485 24.8561 19.5668 25.8653 20.2348 25.8729C21.8438 25.8918 24.2655 25.9714 25.8707 25.8817L25.8732 25.883ZM40.9908 29.5093C40.3127 29.2618 39.3264 29.3552 38.8836 30.4365C38.2382 32.0128 36.2405 39.0445 35.5876 39.5334C35.5335 39.6773 35.4568 39.6155 35.4555 39.4412C35.4555 39.3262 35.5209 38.778 35.526 38.6744C35.6731 36.4943 35.687 37.3545 35.6857 36.1823C35.6857 35.1819 35.3498 35.0253 34.2818 34.7399C33.566 34.5491 32.4979 34.4544 31.7532 34.486C30.392 34.5416 29.8649 34.851 29.6686 36.1091C29.6321 36.2417 29.4686 40.4352 29.4774 44.1399C29.4862 48.2134 29.4384 53.1825 29.4787 53.036C29.4334 55.2199 31.1493 55.0405 32.5495 54.9572C33.5156 54.9395 34.2642 55.0001 34.4227 54.1096C34.5661 53.3088 34.6252 51.9282 34.7309 51.1224C34.7963 50.6222 34.8818 50.1245 34.9573 49.6256C35.024 49.5308 35.1297 49.4892 35.2064 49.6369C35.7574 50.6424 36.4003 51.615 36.8355 52.6608C37.4646 54.1715 38.5376 54.6704 40.2863 54.505C42.7092 54.2763 43.0703 54.0629 42.2475 51.8499C41.3191 49.3553 41.2109 46.9352 40.1064 44.4961C39.8586 43.9479 39.7214 43.5614 40.1001 43.0915C40.719 41.6339 43.1244 37.0008 43.9094 33.4843C43.9773 33.1787 43.7081 32.2882 43.03 31.0832C42.2853 30.1005 42.1381 29.93 40.9895 29.5106L40.9908 29.5093Z" fill="#221F20"/>
</svg>

