<svg width="24" height="24" viewBox="0 0 24 24" fill="none" xmlns="http://www.w3.org/2000/svg">
<rect width="24" height="24" rx="6" fill="#232249"/>
<path d="M5.29266 7.81152C7.2141 9.3616 10.5856 12.0887 11.5766 12.939C11.7096 13.0537 11.8523 13.1121 12.0004 13.1121C12.1482 13.1121 12.2907 13.0543 12.4234 12.9401C13.4152 12.0889 16.7867 9.3616 18.7082 7.81152C18.8278 7.7152 18.846 7.54589 18.7492 7.42813C18.5253 7.15602 18.1915 7 17.8337 7H6.16708C5.80934 7 5.4755 7.15602 5.25164 7.42816C5.15479 7.54589 5.17303 7.7152 5.29266 7.81152Z" fill="white"/>
<path d="M18.8308 8.64944C18.7274 8.60359 18.6058 8.61959 18.5198 8.6896C16.3889 10.4103 13.6694 12.6159 12.8138 13.3504C12.3335 13.7633 11.667 13.7633 11.1856 13.3498C10.2736 12.5671 7.21966 10.094 5.48021 8.68958C5.39361 8.61956 5.27171 8.60412 5.16918 8.64941C5.06609 8.69502 5 8.79324 5 8.90149V15.8886C5 16.5015 5.52322 16.9999 6.16668 16.9999H17.8334C18.4768 16.9999 19 16.5015 19 15.8886V8.90149C19 8.79324 18.9339 8.69476 18.8308 8.64944Z" fill="white"/>
</svg>
