<svg width="16" height="16" viewBox="0 0 16 16" fill="none" xmlns="http://www.w3.org/2000/svg">
<path d="M4.70171 0.0479977C5.55505 0.0091424 5.82857 0 8 0C10.1714 0 10.445 0.00914245 11.2975 0.0472359C11.9615 0.0604421 12.6184 0.186155 13.2404 0.419028C13.7742 0.619935 14.2577 0.934935 14.6571 1.34203C15.0643 1.74147 15.3793 2.22495 15.5802 2.75873C15.8131 3.38064 15.9388 4.03754 15.952 4.70149C15.9909 5.55478 16 5.82829 16 7.99962C16 10.1709 15.9909 10.4445 15.9528 11.297C15.9396 11.9609 15.8138 12.6178 15.581 13.2398C15.3754 13.7711 15.0611 14.2538 14.6584 14.6568C14.2556 15.0598 13.7732 15.3743 13.2419 15.5802C12.62 15.8131 11.963 15.9388 11.299 15.952C10.4457 15.9909 10.1733 16 8.00076 16C5.82819 16 5.55581 15.9901 4.70248 15.952C4.03849 15.9388 3.38156 15.8131 2.75962 15.5802C2.22582 15.3793 1.74231 15.0643 1.34286 14.6572C0.935742 14.2578 0.620727 13.7743 0.41981 13.2405C0.186926 12.6186 0.0612068 11.9617 0.048 11.2977C0.00914283 10.4445 0 10.1709 0 7.99962C0 5.82829 0.00914288 5.55478 0.0472381 4.70225C0.060445 4.0383 0.186164 3.3814 0.419048 2.75949C0.620188 2.22565 0.935467 1.74215 1.34286 1.34279C1.74209 0.93579 2.22533 0.620796 2.75886 0.41979C3.3808 0.186917 4.03773 0.0612039 4.70171 0.0479977Z" fill="#221F20"/>
<path d="M12.2705 4.68944C12.8007 4.68944 13.2305 4.25965 13.2305 3.72949C13.2305 3.19932 12.8007 2.76953 12.2705 2.76953C11.7404 2.76953 11.3105 3.19932 11.3105 3.72949C11.3105 4.25965 11.7404 4.68944 12.2705 4.68944Z" fill="#8FCAE7"/>
<path fill-rule="evenodd" clip-rule="evenodd" d="M7.99882 10.6656C7.4714 10.6656 6.95583 10.5093 6.5173 10.2163C6.07877 9.92325 5.73697 9.5068 5.53514 9.01955C5.3333 8.5323 5.2805 7.99615 5.38339 7.47889C5.48628 6.96163 5.74026 6.4865 6.1132 6.11358C6.48614 5.74066 6.96129 5.48669 7.47858 5.38381C7.99586 5.28092 8.53204 5.33372 9.01931 5.53555C9.50658 5.73737 9.92305 6.07915 10.2161 6.51766C10.5091 6.95617 10.6655 7.47172 10.6655 7.99911C10.6655 8.70632 10.3845 9.38456 9.88444 9.88464C9.38434 10.3847 8.70606 10.6656 7.99882 10.6656Z" fill="#221F20"/>
<path fill-rule="evenodd" clip-rule="evenodd" d="M7.99882 3.89111C7.18629 3.89111 6.39202 4.13204 5.71643 4.58344C5.04084 5.03483 4.51428 5.67641 4.20334 6.42705C3.89241 7.17769 3.81105 8.00367 3.96956 8.80054C4.12808 9.59741 4.51935 10.3294 5.09389 10.9039C5.66843 11.4784 6.40044 11.8697 7.19735 12.0282C7.99426 12.1867 8.82028 12.1053 9.57095 11.7944C10.3216 11.4835 10.9632 10.9569 11.4147 10.2814C11.8661 9.60583 12.107 8.81159 12.107 7.99911C12.107 6.9096 11.6742 5.86472 10.9037 5.09432C10.1333 4.32392 9.08838 3.89111 7.99882 3.89111ZM6.5173 10.2163C6.95583 10.5093 7.4714 10.6656 7.99882 10.6656C8.70606 10.6656 9.38434 10.3847 9.88444 9.88464C10.3845 9.38456 10.6655 8.70632 10.6655 7.99911C10.6655 7.47172 10.5091 6.95617 10.2161 6.51766C9.92305 6.07915 9.50658 5.73737 9.01931 5.53555C8.53204 5.33372 7.99586 5.28092 7.47858 5.38381C6.96129 5.48669 6.48614 5.74066 6.1132 6.11358C5.74026 6.4865 5.48628 6.96163 5.38339 7.47889C5.2805 7.99615 5.3333 8.5323 5.53514 9.01955C5.73697 9.5068 6.07877 9.92325 6.5173 10.2163Z" fill="#8FCAE7"/>
</svg>
