<svg width="14" height="14" viewBox="0 0 14 14" fill="none" xmlns="http://www.w3.org/2000/svg">
<path d="M3.37732 2.04614C3.37732 2.91838 2.62128 3.62547 1.68866 3.62547C0.756039 3.62547 0 2.91838 0 2.04614C0 1.17389 0.756039 0.466797 1.68866 0.466797C2.62128 0.466797 3.37732 1.17389 3.37732 2.04614Z" fill="#221F20"/>
<path d="M0.230928 4.78636H3.11753V13.5335H0.230928V4.78636Z" fill="#221F20"/>
<path d="M7.76495 4.78636H4.87835V13.5335H7.76495C7.76495 13.5335 7.76495 10.7797 7.76495 9.058C7.76495 8.02457 8.11781 6.98663 9.52577 6.98663C11.1169 6.98663 11.1074 8.33903 11.0999 9.38675C11.0902 10.7563 11.1134 12.1539 11.1134 13.5335H14V8.91694C13.9756 5.96915 13.2074 4.61087 10.6804 4.61087C9.1797 4.61087 8.24946 5.29219 7.76495 5.90859V4.78636Z" fill="#221F20"/>
</svg>
