<svg width="18" height="12" viewBox="0 0 18 12" fill="none" xmlns="http://www.w3.org/2000/svg">
<path d="M0.376832 0.97385C2.84726 2.834 7.18209 6.10656 8.45616 7.12696C8.62719 7.26468 8.81064 7.33469 9.00108 7.33469C9.19113 7.33469 9.37426 7.26533 9.54491 7.12827C10.8201 6.10688 15.1549 2.834 17.6254 0.97385C17.7792 0.85826 17.8026 0.655088 17.6781 0.513775C17.3902 0.187231 16.961 0 16.5011 0H1.50109C1.04114 0 0.611921 0.187231 0.324097 0.513806C0.199574 0.655089 0.223023 0.85826 0.376832 0.97385Z" fill="#221F20"/>
<path d="M17.7825 1.97933C17.6496 1.92431 17.4932 1.94351 17.3826 2.02752C14.6429 4.09244 11.1464 6.73923 10.0463 7.62059C9.4288 8.11614 8.57187 8.11614 7.95298 7.61994C6.78038 6.6806 2.85384 3.71279 0.617414 2.02749C0.506074 1.94347 0.349348 1.92494 0.217512 1.97929C0.0849726 2.03403 0 2.1519 0 2.2818V10.6665C0 11.4021 0.672715 12.0002 1.50001 12.0002H16.5C17.3273 12.0002 18 11.4021 18 10.6665V2.2818C18 2.1519 17.915 2.03371 17.7825 1.97933Z" fill="#221F20"/>
</svg>
