<svg width="24" height="24" viewBox="0 0 24 24" fill="none" xmlns="http://www.w3.org/2000/svg">
<rect width="24" height="24" rx="6" fill="#232249"/>
<path d="M17.8152 15.6926C17.8152 15.9026 17.7685 16.1184 17.6693 16.3284C17.5702 16.5384 17.4418 16.7367 17.2727 16.9234C16.9868 17.2384 16.6718 17.4659 16.316 17.6117C15.966 17.7576 15.5868 17.8334 15.1785 17.8334C14.5835 17.8334 13.9477 17.6934 13.2768 17.4076C12.606 17.1217 11.9352 16.7367 11.2702 16.2526C10.5993 15.7626 9.96352 15.2201 9.35685 14.6192C8.75602 14.0126 8.21352 13.3767 7.72935 12.7117C7.25102 12.0467 6.86602 11.3817 6.58602 10.7226C6.30602 10.0576 6.16602 9.42175 6.16602 8.81508C6.16602 8.41841 6.23602 8.03925 6.37602 7.68925C6.51602 7.33341 6.73768 7.00675 7.04685 6.71508C7.42018 6.34758 7.82852 6.16675 8.26018 6.16675C8.42352 6.16675 8.58685 6.20175 8.73268 6.27175C8.88435 6.34175 9.01852 6.44675 9.12352 6.59841L10.4768 8.50592C10.5818 8.65175 10.6577 8.78591 10.7102 8.91425C10.7627 9.03675 10.7918 9.15925 10.7918 9.27008C10.7918 9.41008 10.751 9.55008 10.6693 9.68425C10.5935 9.81841 10.4827 9.95841 10.3427 10.0984L9.89935 10.5592C9.83518 10.6234 9.80602 10.6992 9.80602 10.7926C9.80602 10.8392 9.81185 10.8801 9.82352 10.9267C9.84102 10.9734 9.85852 11.0084 9.87018 11.0434C9.97518 11.2359 10.156 11.4867 10.4127 11.7901C10.6752 12.0934 10.9552 12.4026 11.2585 12.7117C11.5735 13.0209 11.8768 13.3067 12.186 13.5692C12.4893 13.8259 12.7402 14.0009 12.9385 14.1059C12.9677 14.1176 13.0027 14.1351 13.0435 14.1526C13.0902 14.1701 13.1368 14.1759 13.1893 14.1759C13.2885 14.1759 13.3643 14.1409 13.4285 14.0767L13.8718 13.6392C14.0177 13.4934 14.1577 13.3826 14.2918 13.3126C14.426 13.2309 14.5602 13.1901 14.706 13.1901C14.8168 13.1901 14.9335 13.2134 15.0618 13.2659C15.1902 13.3184 15.3243 13.3942 15.4702 13.4934L17.401 14.8642C17.5527 14.9692 17.6577 15.0917 17.7218 15.2376C17.7802 15.3834 17.8152 15.5292 17.8152 15.6926Z" stroke="white" stroke-width="1.5" stroke-miterlimit="10"/>
</svg>
