<svg width="58" height="57" viewBox="0 0 58 57" fill="none" xmlns="http://www.w3.org/2000/svg">
<path fill-rule="evenodd" clip-rule="evenodd" d="M5.16794 29.7485C6.96932 22.4241 6.85135 15.3708 7.06724 7.94151C7.10919 6.49062 5.96945 5.28438 4.52293 5.24068C3.07554 5.19698 1.8676 6.342 1.82477 7.79288C1.62025 14.8376 1.78546 21.5413 0.0758605 28.4986C-0.270255 29.9058 0.590682 31.3304 1.99612 31.6713C3.40068 32.0209 4.8227 31.1557 5.16794 29.7485Z" fill="#221F20"/>
<path fill-rule="evenodd" clip-rule="evenodd" d="M20.4735 43.9421C32.6942 32.772 44.2087 18.403 52.2567 3.89413C52.9586 2.62679 52.5014 1.02725 51.2358 0.32803C49.9702 -0.371193 48.3725 0.0833397 47.6707 1.35068C39.8883 15.3788 28.7523 29.2759 16.9355 40.0702C15.8674 41.0491 15.7931 42.7098 16.7694 43.7761C17.7457 44.8424 19.4055 44.921 20.4735 43.9421Z" fill="#221F20"/>
<path fill-rule="evenodd" clip-rule="evenodd" d="M23.5679 56.1437C34.745 57.9879 46.2656 54.8415 56.4288 50.3927C57.7547 49.8071 58.3595 48.2601 57.78 46.9403C57.1997 45.6118 55.6517 45.0086 54.3258 45.5855C45.0699 49.641 34.6016 52.6477 24.4218 50.9695C22.9937 50.7336 21.6433 51.7037 21.4082 53.1284C21.1722 54.553 22.1406 55.9077 23.5679 56.1437Z" fill="#221F20"/>
</svg>
