<svg width="24" height="25" viewBox="0 0 24 25" fill="none" xmlns="http://www.w3.org/2000/svg">
<rect y="0.5" width="24" height="24" rx="6" fill="#232249"/>
<path fill-rule="evenodd" clip-rule="evenodd" d="M12 19.0625C15.6244 19.0625 18.5625 16.1244 18.5625 12.5C18.5625 8.87563 15.6244 5.9375 12 5.9375C8.37563 5.9375 5.4375 8.87563 5.4375 12.5C5.4375 16.1244 8.37563 19.0625 12 19.0625ZM14.4451 15.2567C14.632 15.3635 14.8712 15.3137 14.9833 15.1358C15.0954 14.9579 15.0356 14.7301 14.8487 14.6234C13.2043 13.6627 11.1563 13.4421 8.77194 13.9616C8.56266 14.0043 8.43559 14.2036 8.48044 14.4028C8.52529 14.6021 8.73457 14.723 8.94386 14.6803C11.1264 14.2107 12.9726 14.4028 14.4451 15.2567ZM15.073 13.6699C15.3047 13.7979 15.6037 13.7339 15.7457 13.5133C15.8877 13.2927 15.813 13.0081 15.5962 12.88C13.6603 11.7485 10.8349 11.4354 8.56266 12.0901C8.30105 12.1613 8.15903 12.4174 8.23378 12.6665C8.30852 12.9084 8.57761 13.0437 8.83922 12.9725C10.8274 12.3961 13.3912 12.6807 15.073 13.6699ZM8.54023 11.1294C10.4687 10.5744 13.7948 10.6811 15.813 11.8197C16.0895 11.9834 16.4483 11.8909 16.6053 11.6204C16.7697 11.3572 16.68 11.0156 16.4034 10.859C14.0863 9.54968 10.4089 9.4216 8.19641 10.062C7.88995 10.1545 7.71056 10.4677 7.80773 10.7594C7.9049 11.0583 8.23378 11.2219 8.54023 11.1294Z" fill="white"/>
</svg>
