<svg width="24" height="24" viewBox="0 0 24 24" fill="none" xmlns="http://www.w3.org/2000/svg">
<rect width="24" height="24" rx="6" fill="#232249"/>
<path d="M9.40426 17.6874C14.686 17.6874 17.5757 13.3105 17.5757 9.51602C17.5757 9.39298 17.5729 9.2672 17.5675 9.14415C18.1296 8.73762 18.6147 8.23409 19 7.6572C18.4765 7.89012 17.9206 8.04225 17.3514 8.10837C17.9507 7.74914 18.3995 7.1848 18.6145 6.51997C18.0507 6.8541 17.4341 7.0898 16.7912 7.21696C16.358 6.75668 15.7852 6.45192 15.1615 6.3498C14.5377 6.24768 13.8977 6.35389 13.3403 6.652C12.783 6.95011 12.3394 7.42352 12.0781 7.99904C11.8168 8.57456 11.7523 9.22013 11.8947 9.83595C10.7531 9.77866 9.6363 9.4821 8.61666 8.9655C7.59702 8.44889 6.69732 7.72378 5.9759 6.83716C5.60923 7.46933 5.49703 8.2174 5.6621 8.92933C5.82717 9.64125 6.25712 10.2636 6.86457 10.6699C6.40853 10.6555 5.96249 10.5327 5.56328 10.3117V10.3473C5.56287 11.0107 5.79222 11.6538 6.21235 12.1672C6.63247 12.6807 7.21744 13.0328 7.86781 13.1637C7.44537 13.2793 7.00199 13.2961 6.57199 13.2129C6.75552 13.7834 7.11258 14.2825 7.59337 14.6403C8.07415 14.9981 8.65465 15.197 9.25387 15.209C8.23658 16.0081 6.97993 16.4415 5.68633 16.4395C5.45692 16.4391 5.22773 16.425 5 16.3974C6.31417 17.2405 7.84289 17.6882 9.40426 17.6874Z" fill="white"/>
</svg>
