<svg width="14" height="15" viewBox="0 0 14 15" fill="none" xmlns="http://www.w3.org/2000/svg">
<path d="M2.75384 9.13315C2.84175 8.40533 3.14025 7.99783 3.70276 7.5801C4.50762 7.01434 5.51301 7.33437 5.51301 7.33437V5.43584C5.75743 5.42959 6.00194 5.44408 6.2437 5.47914V7.92236C6.2437 7.92236 5.23862 7.60233 4.43376 8.16838C3.87155 8.58582 3.57244 8.99361 3.48484 9.72143C3.48209 10.1166 3.55626 10.6332 3.8978 11.0799C3.81336 11.0366 3.72728 10.9873 3.63959 10.9319C2.88723 10.4267 2.75018 9.66877 2.75384 9.13315ZM10.395 1.92546C9.84129 1.31875 9.63191 0.706193 9.55622 0.275879H10.2527C10.2527 0.275879 10.1139 1.40417 11.126 2.51374L11.14 2.52866C10.8672 2.35708 10.6171 2.15455 10.395 1.92546ZM13.7502 3.64555V6.03963C13.7502 6.03963 12.8614 6.00482 12.2037 5.83749C11.2853 5.60346 10.695 5.24453 10.695 5.24453C10.695 5.24453 10.2872 4.98856 10.2543 4.97072V9.9145C10.2543 10.1898 10.1789 10.8772 9.94904 11.4506C9.64901 12.2006 9.18599 12.693 9.10084 12.7936C9.10084 12.7936 8.53771 13.4591 7.54423 13.9073C6.64872 14.3115 5.86248 14.3013 5.62746 14.3115C5.62746 14.3115 4.26833 14.3654 3.04533 13.5706C2.78086 13.3954 2.53399 13.197 2.30792 12.9779L2.31403 12.9823C3.53734 13.7771 4.89616 13.7233 4.89616 13.7233C5.13149 13.713 5.91773 13.7233 6.81293 13.319C7.8055 12.8708 8.36954 12.2053 8.36954 12.2053C8.45378 12.1047 8.91893 11.6123 9.21774 10.862C9.44695 10.2889 9.52295 9.6012 9.52295 9.32592V4.38273C9.55592 4.40087 9.96338 4.65683 9.96338 4.65683C9.96338 4.65683 10.554 5.01606 11.4724 5.24979C12.1304 5.41712 13.0189 5.45193 13.0189 5.45193V3.57593C13.3229 3.64409 13.582 3.66252 13.7502 3.64555Z" fill="#221F20"/>
<path d="M13.0191 3.57593V5.45135C13.0191 5.45135 12.1307 5.41653 11.4726 5.24921C10.5542 5.01518 9.96361 4.65625 9.96361 4.65625C9.96361 4.65625 9.55615 4.40028 9.52318 4.38214V9.32651C9.52318 9.60178 9.4478 10.2895 9.21797 10.8626C8.91794 11.6129 8.45492 12.1053 8.36977 12.2059C8.36977 12.2059 7.80634 12.8714 6.81316 13.3196C5.91796 13.7238 5.13172 13.7136 4.8964 13.7238C4.8964 13.7238 3.53757 13.7777 2.31426 12.9829L2.30815 12.9785C2.179 12.8534 2.05742 12.7214 1.94403 12.583C1.55366 12.107 1.31436 11.5442 1.25424 11.3836C1.25413 11.3829 1.25413 11.3822 1.25424 11.3815C1.15748 11.1025 0.954209 10.4323 0.981983 9.78315C1.03112 8.63789 1.43401 7.93494 1.54053 7.75883C1.82264 7.2786 2.18957 6.84894 2.62497 6.48895C3.00918 6.17832 3.44468 5.93117 3.91359 5.75763C4.42051 5.55387 4.9634 5.44465 5.51301 5.43584V7.33437C5.51301 7.33437 4.50755 7.01551 3.703 7.5801C3.14048 7.99783 2.84198 8.40533 2.75407 9.13315C2.75041 9.66877 2.88745 10.4267 3.6392 10.9322C3.7269 10.9878 3.81298 11.0371 3.89742 11.0802C4.02875 11.251 4.1886 11.3997 4.37051 11.5205C5.10486 11.9853 5.72018 12.0178 6.50703 11.7159C7.0317 11.5141 7.42665 11.0592 7.60978 10.5551C7.72484 10.2404 7.72332 9.92357 7.72332 9.59593V0.275879H9.55462C9.63032 0.706193 9.83969 1.31875 10.3934 1.92546C10.6155 2.15455 10.8656 2.35708 11.1384 2.52866C11.219 2.61203 11.631 3.02421 12.16 3.27725C12.4335 3.40805 12.7217 3.50826 13.0191 3.57593Z" fill="#221F20"/>
<path d="M0.525391 10.8006V10.802L0.570832 10.9252C0.565612 10.9109 0.548725 10.8673 0.525391 10.8006Z" fill="#221F20"/>
</svg>
