<svg width="74" height="81" viewBox="0 0 74 81" fill="none" xmlns="http://www.w3.org/2000/svg">
<path d="M55.3503 67.308C57.289 68.7414 58.9303 69.7716 60.3793 71.1076C61.1485 71.8187 62.1391 73.06 62.0996 74.0078C62.0579 74.9948 61.0353 76.2742 60.1996 76.7758C57.7568 78.2468 55.1951 79.4875 52.6398 80.6108C52.0876 80.8539 51.085 80.7436 50.6128 79.9874C50.0455 79.3645 51.1632 77.9518 51.7168 77.5673C53.8386 76.1235 56.0842 74.9341 58.4724 73.5448C57.1117 72.5388 55.9656 71.7321 54.8359 70.8562C51.82 68.5042 51.6139 65.8686 54.3721 63.1041C58.2711 59.1883 62.2572 55.398 66.2094 51.5418C66.6858 51.0799 67.1382 50.6002 67.5977 50.1054C68.3797 49.4419 68.1793 49.2123 67.4308 49.4935C65.9963 50.0612 64.5567 50.6049 63.1221 51.1726C60.5733 52.1786 58.0294 53.2085 55.4757 54.1905C54.8994 54.4158 54.2503 54.4854 53.6904 54.6414C52.7045 54.9099 51.8391 54.1275 51.4221 53.3918C51.0682 52.7637 50.8179 51.8459 51.5358 50.5244C53.0645 47.7872 54.7546 45.1898 56.4498 42.6164C60.2649 36.8066 64.109 31.0387 67.8074 24.9594C65.9118 26.1633 63.9922 27.3495 62.1256 28.5952C57.9963 31.3433 53.9179 34.1902 49.7616 36.8573C48.3389 37.7798 46.706 39.2188 45.1553 37.3394C43.6987 35.5704 44.6516 33.5067 45.2273 31.6934C47.0561 26.0027 48.9883 20.3682 50.8723 14.698C51.0604 14.1247 51.1813 13.5219 51.4973 12.3307C48.7941 14.3217 46.3832 15.8977 44.1612 17.7967C39.4812 21.7864 34.8791 25.9559 30.2501 30.0443C27.1681 32.773 25.4679 31.9027 25.0087 27.1462C24.4268 21.1999 24.0101 15.2128 23.5049 9.24167C23.4091 8.13281 23.2177 7.05497 22.9814 5.3129C22.4224 6.36514 22.0663 6.91609 21.8257 7.53205C19.0445 14.5947 16.2752 21.6662 13.4989 28.7529C12.7701 30.6159 12.2741 32.9156 10.3563 33.2686C8.35 33.6376 7.5378 31.429 6.54457 29.7787C5.51736 28.0626 4.54262 26.3038 3.16816 24.6363C3.15855 26.5222 3.15603 28.393 3.14641 30.2788C3.137 31.8189 3.22113 33.3669 3.0941 34.8811C3.05198 35.4198 2.47532 36.3369 2.20182 36.2975C1.71006 36.2393 1.21616 36.2202 0.84264 35.1502C0.679209 34.7037 0.612962 34.0847 0.611868 33.5344C0.549605 29.7634 0.405846 25.9933 0.549786 22.2323C0.597914 21.128 1.2784 19.5753 1.9972 19.15C2.59902 18.8011 3.95561 19.5395 4.53339 20.3127C6.01752 22.2649 7.25912 24.5263 8.59575 26.6544C9.03399 27.3448 9.45803 28.0654 10.0562 29.0369C10.7623 27.3606 11.3336 25.9714 11.924 24.5759C14.9747 17.285 18.0253 9.99415 21.088 2.71215C21.303 2.21976 21.5542 1.75408 21.8343 1.33021C22.8081 -0.0870888 24.3012 -0.123049 25.033 1.49678C25.7039 2.96984 26.2301 4.68195 26.4133 6.3644C27.0807 12.5775 27.583 18.8314 28.1427 25.0667C28.1997 25.7398 28.283 26.3916 28.3823 27.32C31.7507 24.396 34.8845 21.5225 38.1302 18.8945C42.0054 15.755 45.9535 12.7711 49.9136 9.79608C51.116 8.89382 52.4398 7.49107 53.8916 8.89017C55.3435 10.2893 54.9086 12.3899 54.3995 14.1304C52.7948 19.6203 51.0242 25.0488 49.3281 30.4915C49.0484 31.3635 48.7616 32.2506 48.7311 33.49C51.5461 31.7446 54.3611 29.9991 57.1711 28.2296C61.3039 25.6469 65.4197 23.0313 69.5575 20.4726C70.5436 19.8582 71.6651 19.059 72.6323 20.3847C73.6165 21.7434 73.0912 23.2073 72.3677 24.4026C69.412 29.2804 66.4372 34.1644 63.3802 38.947C60.9069 42.7974 58.3034 46.5108 55.8809 50.8058C57.9137 50.0697 59.9146 49.2287 61.9721 48.6126C64.5654 47.8228 67.1856 47.1139 69.8192 46.6184C70.6236 46.46 72.0597 46.8908 72.2457 47.4964C72.5102 48.3841 72.1804 50.0536 71.6096 50.751C69.502 53.3045 67.2231 55.6702 64.9294 57.9639C61.9478 61.0314 58.8763 63.9103 55.3503 67.308Z" fill="#12141D"/>
</svg>
