<svg width="16" height="12" viewBox="0 0 16 12" fill="none" xmlns="http://www.w3.org/2000/svg">
<path fill-rule="evenodd" clip-rule="evenodd" d="M2.34376 0.551313C1.22972 0.606506 0.334833 1.47881 0.262535 2.59187C0.193267 3.65827 0.125 4.97043 0.125 6C0.125 7.02957 0.193267 8.34173 0.262535 9.40813C0.334833 10.5212 1.22972 11.3935 2.34376 11.4487C3.95697 11.5286 6.2627 11.625 8 11.625C9.7373 11.625 12.043 11.5286 13.6562 11.4487C14.7703 11.3935 15.6652 10.5212 15.7375 9.40813C15.8067 8.34173 15.875 7.02957 15.875 6C15.875 4.97043 15.8067 3.65827 15.7375 2.59187C15.6652 1.47881 14.7703 0.606506 13.6562 0.551313C12.043 0.471391 9.7373 0.375 8 0.375C6.2627 0.375 3.95697 0.471391 2.34376 0.551313ZM10.8125 6L6.3125 8.25V3.75L10.8125 6Z" fill="#221F20"/>
</svg>
